<mxfile host="app.diagrams.net" agent="Mozilla/5.0 (Windows NT 10.0; Win64; x64) AppleWebKit/537.36 (KHTML, like Gecko) Chrome/134.0.0.0 Safari/537.36 OPR/119.0.0.0" version="28.0.3">
  <diagram id="C5RBs43oDa-KdzZeNtuy" name="Page-1">
    <mxGraphModel dx="2790" dy="783" grid="1" gridSize="10" guides="1" tooltips="1" connect="1" arrows="1" fold="1" page="1" pageScale="1" pageWidth="827" pageHeight="1169" math="0" shadow="0">
      <root>
        <mxCell id="WIyWlLk6GJQsqaUBKTNV-0" />
        <mxCell id="WIyWlLk6GJQsqaUBKTNV-1" parent="WIyWlLk6GJQsqaUBKTNV-0" />
        <mxCell id="M7CGMbNuYNeq0SnUNNgH-6" value="ทบทวนสัญลักษณ์" style="swimlane;fontFamily=Sarabun;fontSource=https%3A%2F%2Ffonts.googleapis.com%2Fcss%3Ffamily%3DSarabun;" parent="WIyWlLk6GJQsqaUBKTNV-1" vertex="1">
          <mxGeometry x="-720" y="20" width="650" height="290" as="geometry" />
        </mxCell>
        <mxCell id="M7CGMbNuYNeq0SnUNNgH-2" value="&lt;font data-font-src=&quot;https://fonts.googleapis.com/css?family=Sarabun&quot; face=&quot;Sarabun&quot;&gt;เริ่มต้น&lt;/font&gt;" style="ellipse;whiteSpace=wrap;html=1;" parent="M7CGMbNuYNeq0SnUNNgH-6" vertex="1">
          <mxGeometry x="20" y="40" width="130" height="30" as="geometry" />
        </mxCell>
        <mxCell id="M7CGMbNuYNeq0SnUNNgH-5" value="" style="endArrow=classic;html=1;rounded=0;" parent="M7CGMbNuYNeq0SnUNNgH-6" edge="1">
          <mxGeometry width="50" height="50" relative="1" as="geometry">
            <mxPoint x="84.5" y="70" as="sourcePoint" />
            <mxPoint x="84.5" y="120" as="targetPoint" />
          </mxGeometry>
        </mxCell>
        <mxCell id="M7CGMbNuYNeq0SnUNNgH-3" value="&lt;font face=&quot;Sarabun&quot;&gt;สิ้นสุด&lt;/font&gt;" style="ellipse;whiteSpace=wrap;html=1;" parent="M7CGMbNuYNeq0SnUNNgH-6" vertex="1">
          <mxGeometry x="150" y="90" width="130" height="30" as="geometry" />
        </mxCell>
        <mxCell id="M7CGMbNuYNeq0SnUNNgH-4" value="" style="endArrow=classic;html=1;rounded=0;" parent="M7CGMbNuYNeq0SnUNNgH-6" edge="1">
          <mxGeometry width="50" height="50" relative="1" as="geometry">
            <mxPoint x="214.5" y="40" as="sourcePoint" />
            <mxPoint x="214.5" y="90" as="targetPoint" />
          </mxGeometry>
        </mxCell>
        <mxCell id="mvioNwK95yMqdUQ73LqQ-0" value="กระบวนการ" style="rounded=0;whiteSpace=wrap;html=1;fontFamily=Sarabun;fontSource=https%3A%2F%2Ffonts.googleapis.com%2Fcss%3Ffamily%3DSarabun;" parent="M7CGMbNuYNeq0SnUNNgH-6" vertex="1">
          <mxGeometry x="320" y="70" width="120" height="30" as="geometry" />
        </mxCell>
        <mxCell id="mvioNwK95yMqdUQ73LqQ-1" value="" style="endArrow=classic;html=1;rounded=0;" parent="M7CGMbNuYNeq0SnUNNgH-6" edge="1">
          <mxGeometry width="50" height="50" relative="1" as="geometry">
            <mxPoint x="379" y="40" as="sourcePoint" />
            <mxPoint x="379.5" y="70" as="targetPoint" />
          </mxGeometry>
        </mxCell>
        <mxCell id="mvioNwK95yMqdUQ73LqQ-2" value="" style="endArrow=classic;html=1;rounded=0;" parent="M7CGMbNuYNeq0SnUNNgH-6" edge="1">
          <mxGeometry width="50" height="50" relative="1" as="geometry">
            <mxPoint x="379.75" y="100" as="sourcePoint" />
            <mxPoint x="380.25" y="130" as="targetPoint" />
          </mxGeometry>
        </mxCell>
        <mxCell id="mvioNwK95yMqdUQ73LqQ-3" value="ประโยคเงื่อนไข" style="rhombus;whiteSpace=wrap;html=1;fontFamily=Sarabun;fontSource=https%3A%2F%2Ffonts.googleapis.com%2Fcss%3Ffamily%3DSarabun;" parent="M7CGMbNuYNeq0SnUNNgH-6" vertex="1">
          <mxGeometry x="490" y="60" width="100" height="60" as="geometry" />
        </mxCell>
        <mxCell id="mvioNwK95yMqdUQ73LqQ-4" value="" style="endArrow=classic;html=1;rounded=0;" parent="M7CGMbNuYNeq0SnUNNgH-6" edge="1">
          <mxGeometry width="50" height="50" relative="1" as="geometry">
            <mxPoint x="539.71" y="30" as="sourcePoint" />
            <mxPoint x="540.21" y="60" as="targetPoint" />
          </mxGeometry>
        </mxCell>
        <mxCell id="mvioNwK95yMqdUQ73LqQ-5" value="" style="endArrow=classic;html=1;rounded=0;" parent="M7CGMbNuYNeq0SnUNNgH-6" edge="1">
          <mxGeometry width="50" height="50" relative="1" as="geometry">
            <mxPoint x="539.71" y="120" as="sourcePoint" />
            <mxPoint x="540" y="175" as="targetPoint" />
          </mxGeometry>
        </mxCell>
        <mxCell id="mvioNwK95yMqdUQ73LqQ-7" value="จริง" style="edgeLabel;html=1;align=center;verticalAlign=middle;resizable=0;points=[];fontFamily=Sarabun;fontSource=https%3A%2F%2Ffonts.googleapis.com%2Fcss%3Ffamily%3DSarabun;" parent="mvioNwK95yMqdUQ73LqQ-5" vertex="1" connectable="0">
          <mxGeometry x="-0.4142" y="-1" relative="1" as="geometry">
            <mxPoint as="offset" />
          </mxGeometry>
        </mxCell>
        <mxCell id="mvioNwK95yMqdUQ73LqQ-6" value="" style="endArrow=classic;html=1;rounded=0;exitX=1;exitY=0.5;exitDx=0;exitDy=0;" parent="M7CGMbNuYNeq0SnUNNgH-6" source="mvioNwK95yMqdUQ73LqQ-3" edge="1">
          <mxGeometry width="50" height="50" relative="1" as="geometry">
            <mxPoint x="620" y="95" as="sourcePoint" />
            <mxPoint x="610" y="175" as="targetPoint" />
            <Array as="points">
              <mxPoint x="610" y="90" />
            </Array>
          </mxGeometry>
        </mxCell>
        <mxCell id="mvioNwK95yMqdUQ73LqQ-8" value="&lt;font data-font-src=&quot;https://fonts.googleapis.com/css?family=Sarabun&quot; face=&quot;Sarabun&quot;&gt;เท็จ&lt;/font&gt;" style="edgeLabel;html=1;align=center;verticalAlign=middle;resizable=0;points=[];" parent="mvioNwK95yMqdUQ73LqQ-6" vertex="1" connectable="0">
          <mxGeometry x="-0.0019" y="-2" relative="1" as="geometry">
            <mxPoint as="offset" />
          </mxGeometry>
        </mxCell>
        <mxCell id="mvioNwK95yMqdUQ73LqQ-9" value="&lt;font data-font-src=&quot;https://fonts.googleapis.com/css?family=Sarabun&quot; face=&quot;Sarabun&quot;&gt;ฟังก์ชัน/โมดูล&lt;/font&gt;" style="shape=process;whiteSpace=wrap;html=1;backgroundOutline=1;" parent="M7CGMbNuYNeq0SnUNNgH-6" vertex="1">
          <mxGeometry x="25" y="180" width="120" height="30" as="geometry" />
        </mxCell>
        <mxCell id="mvioNwK95yMqdUQ73LqQ-11" value="" style="endArrow=classic;html=1;rounded=0;" parent="M7CGMbNuYNeq0SnUNNgH-6" edge="1">
          <mxGeometry width="50" height="50" relative="1" as="geometry">
            <mxPoint x="84.70999999999998" y="150" as="sourcePoint" />
            <mxPoint x="85.20999999999998" y="180" as="targetPoint" />
          </mxGeometry>
        </mxCell>
        <mxCell id="mvioNwK95yMqdUQ73LqQ-12" value="" style="endArrow=classic;html=1;rounded=0;" parent="M7CGMbNuYNeq0SnUNNgH-6" edge="1">
          <mxGeometry width="50" height="50" relative="1" as="geometry">
            <mxPoint x="84.70999999999998" y="210" as="sourcePoint" />
            <mxPoint x="85.20999999999998" y="240" as="targetPoint" />
          </mxGeometry>
        </mxCell>
        <mxCell id="mvioNwK95yMqdUQ73LqQ-13" value="" style="strokeWidth=2;html=1;shape=mxgraph.flowchart.start_2;whiteSpace=wrap;" parent="M7CGMbNuYNeq0SnUNNgH-6" vertex="1">
          <mxGeometry x="205" y="185" width="20" height="20" as="geometry" />
        </mxCell>
        <mxCell id="mvioNwK95yMqdUQ73LqQ-16" value="" style="endArrow=classic;html=1;rounded=0;" parent="M7CGMbNuYNeq0SnUNNgH-6" edge="1">
          <mxGeometry width="50" height="50" relative="1" as="geometry">
            <mxPoint x="214.70999999999998" y="155" as="sourcePoint" />
            <mxPoint x="215.20999999999998" y="185" as="targetPoint" />
          </mxGeometry>
        </mxCell>
        <mxCell id="mvioNwK95yMqdUQ73LqQ-17" value="" style="endArrow=classic;html=1;rounded=0;entryX=0;entryY=0.5;entryDx=0;entryDy=0;entryPerimeter=0;" parent="M7CGMbNuYNeq0SnUNNgH-6" target="mvioNwK95yMqdUQ73LqQ-13" edge="1">
          <mxGeometry width="50" height="50" relative="1" as="geometry">
            <mxPoint x="189.99999999999997" y="155" as="sourcePoint" />
            <mxPoint x="190.49999999999997" y="185" as="targetPoint" />
            <Array as="points">
              <mxPoint x="190" y="180" />
            </Array>
          </mxGeometry>
        </mxCell>
        <mxCell id="mvioNwK95yMqdUQ73LqQ-18" value="" style="endArrow=classic;html=1;rounded=0;entryX=1;entryY=0.5;entryDx=0;entryDy=0;entryPerimeter=0;" parent="M7CGMbNuYNeq0SnUNNgH-6" target="mvioNwK95yMqdUQ73LqQ-13" edge="1">
          <mxGeometry width="50" height="50" relative="1" as="geometry">
            <mxPoint x="239.99999999999997" y="155" as="sourcePoint" />
            <mxPoint x="240.49999999999997" y="185" as="targetPoint" />
            <Array as="points">
              <mxPoint x="240" y="180" />
            </Array>
          </mxGeometry>
        </mxCell>
        <mxCell id="mvioNwK95yMqdUQ73LqQ-19" value="" style="endArrow=classic;html=1;rounded=0;" parent="M7CGMbNuYNeq0SnUNNgH-6" edge="1">
          <mxGeometry width="50" height="50" relative="1" as="geometry">
            <mxPoint x="214.70999999999998" y="205" as="sourcePoint" />
            <mxPoint x="215.20999999999998" y="235" as="targetPoint" />
          </mxGeometry>
        </mxCell>
        <mxCell id="mvioNwK95yMqdUQ73LqQ-20" value="&lt;font data-font-src=&quot;https://fonts.googleapis.com/css?family=Sarabun&quot; face=&quot;Sarabun&quot;&gt;ตัวเชื่อม&lt;/font&gt;" style="text;html=1;align=center;verticalAlign=middle;resizable=0;points=[];autosize=1;strokeColor=none;fillColor=none;" parent="M7CGMbNuYNeq0SnUNNgH-6" vertex="1">
          <mxGeometry x="220" y="190" width="60" height="30" as="geometry" />
        </mxCell>
        <mxCell id="mvioNwK95yMqdUQ73LqQ-25" value="" style="endArrow=classic;html=1;rounded=0;" parent="M7CGMbNuYNeq0SnUNNgH-6" edge="1">
          <mxGeometry width="50" height="50" relative="1" as="geometry">
            <mxPoint x="353.71" y="165" as="sourcePoint" />
            <mxPoint x="354.21" y="195" as="targetPoint" />
          </mxGeometry>
        </mxCell>
        <mxCell id="mvioNwK95yMqdUQ73LqQ-21" value="" style="verticalLabelPosition=bottom;verticalAlign=top;html=1;shape=offPageConnector;rounded=0;size=0.5;" parent="M7CGMbNuYNeq0SnUNNgH-6" vertex="1">
          <mxGeometry x="339" y="195" width="30" height="30" as="geometry" />
        </mxCell>
        <mxCell id="mvioNwK95yMqdUQ73LqQ-26" value="" style="endArrow=classic;html=1;rounded=0;" parent="M7CGMbNuYNeq0SnUNNgH-6" edge="1">
          <mxGeometry width="50" height="50" relative="1" as="geometry">
            <mxPoint x="405.71" y="195" as="sourcePoint" />
            <mxPoint x="406.21" y="225" as="targetPoint" />
          </mxGeometry>
        </mxCell>
        <mxCell id="mvioNwK95yMqdUQ73LqQ-27" value="" style="verticalLabelPosition=bottom;verticalAlign=top;html=1;shape=offPageConnector;rounded=0;size=0.5;" parent="M7CGMbNuYNeq0SnUNNgH-6" vertex="1">
          <mxGeometry x="391" y="165" width="30" height="30" as="geometry" />
        </mxCell>
        <mxCell id="mvioNwK95yMqdUQ73LqQ-28" value="หน้าต่อไป" style="text;html=1;align=center;verticalAlign=middle;resizable=0;points=[];autosize=1;strokeColor=none;fillColor=none;fontFamily=Sarabun;fontSource=https%3A%2F%2Ffonts.googleapis.com%2Fcss%3Ffamily%3DSarabun;" parent="M7CGMbNuYNeq0SnUNNgH-6" vertex="1">
          <mxGeometry x="345" y="220" width="70" height="30" as="geometry" />
        </mxCell>
        <mxCell id="mvioNwK95yMqdUQ73LqQ-29" value="ก" style="text;html=1;align=center;verticalAlign=middle;resizable=0;points=[];autosize=1;strokeColor=none;fillColor=none;fontFamily=Sarabun;fontSource=https%3A%2F%2Ffonts.googleapis.com%2Fcss%3Ffamily%3DSarabun;" parent="M7CGMbNuYNeq0SnUNNgH-6" vertex="1">
          <mxGeometry x="339" y="190" width="30" height="30" as="geometry" />
        </mxCell>
        <mxCell id="mvioNwK95yMqdUQ73LqQ-30" value="ก" style="text;html=1;align=center;verticalAlign=middle;resizable=0;points=[];autosize=1;strokeColor=none;fillColor=none;fontFamily=Sarabun;fontSource=https%3A%2F%2Ffonts.googleapis.com%2Fcss%3Ffamily%3DSarabun;" parent="M7CGMbNuYNeq0SnUNNgH-6" vertex="1">
          <mxGeometry x="391" y="160" width="30" height="30" as="geometry" />
        </mxCell>
        <mxCell id="mvioNwK95yMqdUQ73LqQ-32" value="แสดงผล/รับค่า" style="shape=parallelogram;perimeter=parallelogramPerimeter;whiteSpace=wrap;html=1;fixedSize=1;fontFamily=Sarabun;fontSource=https%3A%2F%2Ffonts.googleapis.com%2Fcss%3Ffamily%3DSarabun;" parent="M7CGMbNuYNeq0SnUNNgH-6" vertex="1">
          <mxGeometry x="450" y="210" width="120" height="30" as="geometry" />
        </mxCell>
        <mxCell id="mvioNwK95yMqdUQ73LqQ-33" value="" style="endArrow=classic;html=1;rounded=0;" parent="M7CGMbNuYNeq0SnUNNgH-6" edge="1">
          <mxGeometry width="50" height="50" relative="1" as="geometry">
            <mxPoint x="509.71" y="180" as="sourcePoint" />
            <mxPoint x="510.21" y="210" as="targetPoint" />
          </mxGeometry>
        </mxCell>
        <mxCell id="mvioNwK95yMqdUQ73LqQ-34" value="" style="endArrow=classic;html=1;rounded=0;" parent="M7CGMbNuYNeq0SnUNNgH-6" edge="1">
          <mxGeometry width="50" height="50" relative="1" as="geometry">
            <mxPoint x="509.71" y="240" as="sourcePoint" />
            <mxPoint x="510.21" y="270" as="targetPoint" />
          </mxGeometry>
        </mxCell>
        <mxCell id="mvioNwK95yMqdUQ73LqQ-36" value="แก้ไขโจทย์ปัญหา" style="swimlane;fontFamily=Sarabun;fontSource=https%3A%2F%2Ffonts.googleapis.com%2Fcss%3Ffamily%3DSarabun;movable=1;resizable=1;rotatable=1;deletable=1;editable=1;locked=0;connectable=1;" parent="WIyWlLk6GJQsqaUBKTNV-1" vertex="1">
          <mxGeometry x="-760" y="630" width="1510" height="2800" as="geometry" />
        </mxCell>
        <mxCell id="Sg2g_KQ4mxl8zUknpwYj-38" style="edgeStyle=orthogonalEdgeStyle;rounded=0;orthogonalLoop=1;jettySize=auto;html=1;exitX=0.5;exitY=1;exitDx=0;exitDy=0;entryX=0.5;entryY=0;entryDx=0;entryDy=0;fontFamily=Sarabun;fontSource=https%3A%2F%2Ffonts.googleapis.com%2Fcss%3Ffamily%3DSarabun;fontSize=12;fontColor=default;fontStyle=1;resizable=1;" edge="1" parent="mvioNwK95yMqdUQ73LqQ-36" source="mvioNwK95yMqdUQ73LqQ-35" target="Sg2g_KQ4mxl8zUknpwYj-0">
          <mxGeometry relative="1" as="geometry" />
        </mxCell>
        <mxCell id="mvioNwK95yMqdUQ73LqQ-35" value="&lt;font data-font-src=&quot;https://fonts.googleapis.com/css?family=Sarabun&quot; face=&quot;Sarabun&quot;&gt;เริ่มต้น&lt;/font&gt;" style="ellipse;whiteSpace=wrap;html=1;" parent="mvioNwK95yMqdUQ73LqQ-36" vertex="1">
          <mxGeometry x="255" y="40" width="130" height="30" as="geometry" />
        </mxCell>
        <mxCell id="mvioNwK95yMqdUQ73LqQ-69" value="&lt;font face=&quot;Sarabun&quot;&gt;สิ้นสุด&lt;/font&gt;" style="ellipse;whiteSpace=wrap;html=1;" parent="mvioNwK95yMqdUQ73LqQ-36" vertex="1">
          <mxGeometry x="1050" y="1950" width="130" height="30" as="geometry" />
        </mxCell>
        <mxCell id="Sg2g_KQ4mxl8zUknpwYj-39" style="edgeStyle=orthogonalEdgeStyle;rounded=0;orthogonalLoop=1;jettySize=auto;html=1;exitX=0.5;exitY=1;exitDx=0;exitDy=0;entryX=0.5;entryY=0;entryDx=0;entryDy=0;fontFamily=Sarabun;fontSource=https%3A%2F%2Ffonts.googleapis.com%2Fcss%3Ffamily%3DSarabun;fontSize=12;fontColor=default;fontStyle=1;resizable=1;" edge="1" parent="mvioNwK95yMqdUQ73LqQ-36" source="Sg2g_KQ4mxl8zUknpwYj-0" target="Sg2g_KQ4mxl8zUknpwYj-1">
          <mxGeometry relative="1" as="geometry" />
        </mxCell>
        <mxCell id="Sg2g_KQ4mxl8zUknpwYj-0" value="กำหนดของที่ต้องซื้อ&lt;div&gt;มาม่า = ตัมยำกุ้ง&lt;/div&gt;&lt;div&gt;ผัก = ผักกาด&lt;/div&gt;&lt;div&gt;ไข่ = 1ฟอง&lt;/div&gt;" style="rounded=0;whiteSpace=wrap;html=1;fontFamily=Sarabun;fontSource=https%3A%2F%2Ffonts.googleapis.com%2Fcss%3Ffamily%3DSarabun;" vertex="1" parent="mvioNwK95yMqdUQ73LqQ-36">
          <mxGeometry x="260" y="90" width="120" height="70" as="geometry" />
        </mxCell>
        <mxCell id="Sg2g_KQ4mxl8zUknpwYj-40" style="edgeStyle=orthogonalEdgeStyle;rounded=0;orthogonalLoop=1;jettySize=auto;html=1;exitX=0.5;exitY=1;exitDx=0;exitDy=0;entryX=0.5;entryY=0;entryDx=0;entryDy=0;fontFamily=Sarabun;fontSource=https%3A%2F%2Ffonts.googleapis.com%2Fcss%3Ffamily%3DSarabun;fontSize=12;fontColor=default;fontStyle=1;resizable=1;" edge="1" parent="mvioNwK95yMqdUQ73LqQ-36" source="Sg2g_KQ4mxl8zUknpwYj-1" target="Sg2g_KQ4mxl8zUknpwYj-2">
          <mxGeometry relative="1" as="geometry" />
        </mxCell>
        <mxCell id="Sg2g_KQ4mxl8zUknpwYj-1" value="เงิน = 20 บาท" style="rounded=0;whiteSpace=wrap;html=1;fontFamily=Sarabun;fontSource=https%3A%2F%2Ffonts.googleapis.com%2Fcss%3Ffamily%3DSarabun;" vertex="1" parent="mvioNwK95yMqdUQ73LqQ-36">
          <mxGeometry x="260" y="180" width="120" height="30" as="geometry" />
        </mxCell>
        <mxCell id="Sg2g_KQ4mxl8zUknpwYj-2" value="เดินไปที่ตลาด" style="rounded=0;whiteSpace=wrap;html=1;fontFamily=Sarabun;fontSource=https%3A%2F%2Ffonts.googleapis.com%2Fcss%3Ffamily%3DSarabun;" vertex="1" parent="mvioNwK95yMqdUQ73LqQ-36">
          <mxGeometry x="260" y="230" width="120" height="30" as="geometry" />
        </mxCell>
        <mxCell id="Sg2g_KQ4mxl8zUknpwYj-7" value="" style="edgeStyle=orthogonalEdgeStyle;rounded=0;orthogonalLoop=1;jettySize=auto;html=1;" edge="1" parent="mvioNwK95yMqdUQ73LqQ-36" source="Sg2g_KQ4mxl8zUknpwYj-3" target="Sg2g_KQ4mxl8zUknpwYj-6">
          <mxGeometry relative="1" as="geometry" />
        </mxCell>
        <mxCell id="Sg2g_KQ4mxl8zUknpwYj-3" value="มองหาร้านขายของชำ" style="rounded=0;whiteSpace=wrap;html=1;fontFamily=Sarabun;fontSource=https%3A%2F%2Ffonts.googleapis.com%2Fcss%3Ffamily%3DSarabun;" vertex="1" parent="mvioNwK95yMqdUQ73LqQ-36">
          <mxGeometry x="260" y="350" width="120" height="30" as="geometry" />
        </mxCell>
        <mxCell id="Sg2g_KQ4mxl8zUknpwYj-9" value="" style="edgeStyle=orthogonalEdgeStyle;rounded=0;orthogonalLoop=1;jettySize=auto;html=1;" edge="1" parent="mvioNwK95yMqdUQ73LqQ-36" source="Sg2g_KQ4mxl8zUknpwYj-6" target="Sg2g_KQ4mxl8zUknpwYj-8">
          <mxGeometry relative="1" as="geometry" />
        </mxCell>
        <mxCell id="Sg2g_KQ4mxl8zUknpwYj-18" value="" style="edgeStyle=orthogonalEdgeStyle;rounded=0;orthogonalLoop=1;jettySize=auto;html=1;" edge="1" parent="mvioNwK95yMqdUQ73LqQ-36" source="Sg2g_KQ4mxl8zUknpwYj-6" target="Sg2g_KQ4mxl8zUknpwYj-17">
          <mxGeometry relative="1" as="geometry" />
        </mxCell>
        <mxCell id="Sg2g_KQ4mxl8zUknpwYj-6" value="เจอร้านขายของชำ" style="rhombus;whiteSpace=wrap;html=1;fontFamily=Sarabun;rounded=0;fontSource=https%3A%2F%2Ffonts.googleapis.com%2Fcss%3Ffamily%3DSarabun;" vertex="1" parent="mvioNwK95yMqdUQ73LqQ-36">
          <mxGeometry x="250" y="400" width="140" height="80" as="geometry" />
        </mxCell>
        <mxCell id="Sg2g_KQ4mxl8zUknpwYj-10" style="edgeStyle=orthogonalEdgeStyle;rounded=0;orthogonalLoop=1;jettySize=auto;html=1;entryX=1;entryY=0.5;entryDx=0;entryDy=0;exitX=0.5;exitY=0;exitDx=0;exitDy=0;entryPerimeter=0;" edge="1" parent="mvioNwK95yMqdUQ73LqQ-36" source="Sg2g_KQ4mxl8zUknpwYj-8" target="Sg2g_KQ4mxl8zUknpwYj-11">
          <mxGeometry relative="1" as="geometry" />
        </mxCell>
        <mxCell id="Sg2g_KQ4mxl8zUknpwYj-8" value="เดินหาจุดอื่น" style="whiteSpace=wrap;html=1;fontFamily=Sarabun;rounded=0;fontSource=https%3A%2F%2Ffonts.googleapis.com%2Fcss%3Ffamily%3DSarabun;" vertex="1" parent="mvioNwK95yMqdUQ73LqQ-36">
          <mxGeometry x="485" y="410" width="120" height="60" as="geometry" />
        </mxCell>
        <mxCell id="Sg2g_KQ4mxl8zUknpwYj-15" style="edgeStyle=orthogonalEdgeStyle;rounded=0;orthogonalLoop=1;jettySize=auto;html=1;exitX=0.5;exitY=1;exitDx=0;exitDy=0;exitPerimeter=0;entryX=0.5;entryY=0;entryDx=0;entryDy=0;" edge="1" parent="mvioNwK95yMqdUQ73LqQ-36" source="Sg2g_KQ4mxl8zUknpwYj-11" target="Sg2g_KQ4mxl8zUknpwYj-3">
          <mxGeometry relative="1" as="geometry" />
        </mxCell>
        <mxCell id="Sg2g_KQ4mxl8zUknpwYj-11" value="" style="strokeWidth=2;html=1;shape=mxgraph.flowchart.start_2;whiteSpace=wrap;" vertex="1" parent="mvioNwK95yMqdUQ73LqQ-36">
          <mxGeometry x="310" y="300" width="20" height="20" as="geometry" />
        </mxCell>
        <mxCell id="Sg2g_KQ4mxl8zUknpwYj-14" style="edgeStyle=orthogonalEdgeStyle;rounded=0;orthogonalLoop=1;jettySize=auto;html=1;exitX=0.5;exitY=1;exitDx=0;exitDy=0;entryX=0.5;entryY=0;entryDx=0;entryDy=0;entryPerimeter=0;" edge="1" parent="mvioNwK95yMqdUQ73LqQ-36" source="Sg2g_KQ4mxl8zUknpwYj-2" target="Sg2g_KQ4mxl8zUknpwYj-11">
          <mxGeometry relative="1" as="geometry" />
        </mxCell>
        <mxCell id="Sg2g_KQ4mxl8zUknpwYj-24" value="" style="edgeStyle=orthogonalEdgeStyle;rounded=0;orthogonalLoop=1;jettySize=auto;html=1;" edge="1" parent="mvioNwK95yMqdUQ73LqQ-36" source="Sg2g_KQ4mxl8zUknpwYj-17" target="Sg2g_KQ4mxl8zUknpwYj-23">
          <mxGeometry relative="1" as="geometry" />
        </mxCell>
        <mxCell id="Sg2g_KQ4mxl8zUknpwYj-17" value="เดินเข้าร้านขายของชำ" style="whiteSpace=wrap;html=1;fontFamily=Sarabun;rounded=0;fontSource=https%3A%2F%2Ffonts.googleapis.com%2Fcss%3Ffamily%3DSarabun;" vertex="1" parent="mvioNwK95yMqdUQ73LqQ-36">
          <mxGeometry x="260" y="540" width="120" height="60" as="geometry" />
        </mxCell>
        <mxCell id="Sg2g_KQ4mxl8zUknpwYj-19" value="F" style="text;html=1;align=center;verticalAlign=middle;whiteSpace=wrap;rounded=0;" vertex="1" parent="mvioNwK95yMqdUQ73LqQ-36">
          <mxGeometry x="370" y="410" width="60" height="30" as="geometry" />
        </mxCell>
        <mxCell id="Sg2g_KQ4mxl8zUknpwYj-20" value="T" style="text;html=1;align=center;verticalAlign=middle;whiteSpace=wrap;rounded=0;" vertex="1" parent="mvioNwK95yMqdUQ73LqQ-36">
          <mxGeometry x="300" y="480" width="60" height="30" as="geometry" />
        </mxCell>
        <mxCell id="Sg2g_KQ4mxl8zUknpwYj-26" value="" style="edgeStyle=orthogonalEdgeStyle;rounded=0;orthogonalLoop=1;jettySize=auto;html=1;" edge="1" parent="mvioNwK95yMqdUQ73LqQ-36" source="Sg2g_KQ4mxl8zUknpwYj-23" target="Sg2g_KQ4mxl8zUknpwYj-25">
          <mxGeometry relative="1" as="geometry" />
        </mxCell>
        <mxCell id="Sg2g_KQ4mxl8zUknpwYj-23" value="มองหามาม่า" style="whiteSpace=wrap;html=1;fontFamily=Sarabun;rounded=0;fontSource=https%3A%2F%2Ffonts.googleapis.com%2Fcss%3Ffamily%3DSarabun;" vertex="1" parent="mvioNwK95yMqdUQ73LqQ-36">
          <mxGeometry x="260" y="630" width="120" height="60" as="geometry" />
        </mxCell>
        <mxCell id="Sg2g_KQ4mxl8zUknpwYj-28" value="" style="edgeStyle=orthogonalEdgeStyle;rounded=0;orthogonalLoop=1;jettySize=auto;html=1;" edge="1" parent="mvioNwK95yMqdUQ73LqQ-36" source="Sg2g_KQ4mxl8zUknpwYj-25" target="Sg2g_KQ4mxl8zUknpwYj-27">
          <mxGeometry relative="1" as="geometry" />
        </mxCell>
        <mxCell id="Sg2g_KQ4mxl8zUknpwYj-32" value="" style="edgeStyle=orthogonalEdgeStyle;rounded=0;orthogonalLoop=1;jettySize=auto;html=1;" edge="1" parent="mvioNwK95yMqdUQ73LqQ-36" source="Sg2g_KQ4mxl8zUknpwYj-33" target="Sg2g_KQ4mxl8zUknpwYj-31">
          <mxGeometry relative="1" as="geometry" />
        </mxCell>
        <mxCell id="Sg2g_KQ4mxl8zUknpwYj-25" value="มาม่าในร้าน มี ต้มยำกุ้งหรือไม่" style="rhombus;whiteSpace=wrap;html=1;fontFamily=Sarabun;rounded=0;fontSource=https%3A%2F%2Ffonts.googleapis.com%2Fcss%3Ffamily%3DSarabun;" vertex="1" parent="mvioNwK95yMqdUQ73LqQ-36">
          <mxGeometry x="240" y="730" width="160" height="80" as="geometry" />
        </mxCell>
        <mxCell id="Sg2g_KQ4mxl8zUknpwYj-27" value="มาม่า = มาม่าในร้าน" style="whiteSpace=wrap;html=1;fontFamily=Sarabun;rounded=0;fontSource=https%3A%2F%2Ffonts.googleapis.com%2Fcss%3Ffamily%3DSarabun;" vertex="1" parent="mvioNwK95yMqdUQ73LqQ-36">
          <mxGeometry x="40" y="740" width="120" height="60" as="geometry" />
        </mxCell>
        <mxCell id="Sg2g_KQ4mxl8zUknpwYj-37" value="" style="edgeStyle=orthogonalEdgeStyle;rounded=0;orthogonalLoop=1;jettySize=auto;html=1;fontFamily=Sarabun;fontSource=https%3A%2F%2Ffonts.googleapis.com%2Fcss%3Ffamily%3DSarabun;fontSize=12;fontColor=default;fontStyle=1;resizable=1;" edge="1" parent="mvioNwK95yMqdUQ73LqQ-36" source="Sg2g_KQ4mxl8zUknpwYj-31" target="Sg2g_KQ4mxl8zUknpwYj-36">
          <mxGeometry relative="1" as="geometry" />
        </mxCell>
        <mxCell id="Sg2g_KQ4mxl8zUknpwYj-31" value="ยิบมาม่านั้นมา" style="whiteSpace=wrap;html=1;fontFamily=Sarabun;rounded=0;fontSource=https%3A%2F%2Ffonts.googleapis.com%2Fcss%3Ffamily%3DSarabun;" vertex="1" parent="mvioNwK95yMqdUQ73LqQ-36">
          <mxGeometry x="260" y="890" width="120" height="60" as="geometry" />
        </mxCell>
        <mxCell id="Sg2g_KQ4mxl8zUknpwYj-33" value="" style="strokeWidth=2;html=1;shape=mxgraph.flowchart.start_2;whiteSpace=wrap;" vertex="1" parent="mvioNwK95yMqdUQ73LqQ-36">
          <mxGeometry x="310" y="840" width="20" height="20" as="geometry" />
        </mxCell>
        <mxCell id="Sg2g_KQ4mxl8zUknpwYj-34" value="" style="edgeStyle=orthogonalEdgeStyle;rounded=0;orthogonalLoop=1;jettySize=auto;html=1;" edge="1" parent="mvioNwK95yMqdUQ73LqQ-36" source="Sg2g_KQ4mxl8zUknpwYj-25" target="Sg2g_KQ4mxl8zUknpwYj-33">
          <mxGeometry relative="1" as="geometry">
            <mxPoint x="-440" y="1450" as="sourcePoint" />
            <mxPoint x="-440" y="1510" as="targetPoint" />
          </mxGeometry>
        </mxCell>
        <mxCell id="Sg2g_KQ4mxl8zUknpwYj-35" style="edgeStyle=orthogonalEdgeStyle;rounded=0;orthogonalLoop=1;jettySize=auto;html=1;exitX=0.5;exitY=1;exitDx=0;exitDy=0;entryX=0;entryY=0.5;entryDx=0;entryDy=0;entryPerimeter=0;fontFamily=Sarabun;fontSource=https%3A%2F%2Ffonts.googleapis.com%2Fcss%3Ffamily%3DSarabun;fontSize=12;fontColor=default;fontStyle=1;resizable=1;" edge="1" parent="mvioNwK95yMqdUQ73LqQ-36" source="Sg2g_KQ4mxl8zUknpwYj-27" target="Sg2g_KQ4mxl8zUknpwYj-33">
          <mxGeometry relative="1" as="geometry" />
        </mxCell>
        <mxCell id="Sg2g_KQ4mxl8zUknpwYj-44" value="" style="edgeStyle=orthogonalEdgeStyle;rounded=0;orthogonalLoop=1;jettySize=auto;html=1;fontFamily=Sarabun;fontSource=https%3A%2F%2Ffonts.googleapis.com%2Fcss%3Ffamily%3DSarabun;fontSize=12;fontColor=default;fontStyle=1;resizable=1;" edge="1" parent="mvioNwK95yMqdUQ73LqQ-36" source="Sg2g_KQ4mxl8zUknpwYj-36" target="Sg2g_KQ4mxl8zUknpwYj-43">
          <mxGeometry relative="1" as="geometry" />
        </mxCell>
        <mxCell id="Sg2g_KQ4mxl8zUknpwYj-36" value="มองหาผัก" style="whiteSpace=wrap;html=1;fontFamily=Sarabun;rounded=0;fontSource=https%3A%2F%2Ffonts.googleapis.com%2Fcss%3Ffamily%3DSarabun;" vertex="1" parent="mvioNwK95yMqdUQ73LqQ-36">
          <mxGeometry x="260" y="980" width="120" height="60" as="geometry" />
        </mxCell>
        <mxCell id="Sg2g_KQ4mxl8zUknpwYj-48" value="" style="edgeStyle=orthogonalEdgeStyle;rounded=0;orthogonalLoop=1;jettySize=auto;html=1;fontFamily=Sarabun;fontSource=https%3A%2F%2Ffonts.googleapis.com%2Fcss%3Ffamily%3DSarabun;fontSize=12;fontColor=default;fontStyle=1;resizable=1;" edge="1" parent="mvioNwK95yMqdUQ73LqQ-36" source="Sg2g_KQ4mxl8zUknpwYj-43" target="Sg2g_KQ4mxl8zUknpwYj-47">
          <mxGeometry relative="1" as="geometry" />
        </mxCell>
        <mxCell id="Sg2g_KQ4mxl8zUknpwYj-43" value="ผักในร้าน มีผักกาด" style="rhombus;whiteSpace=wrap;html=1;fontFamily=Sarabun;rounded=0;fontSource=https%3A%2F%2Ffonts.googleapis.com%2Fcss%3Ffamily%3DSarabun;" vertex="1" parent="mvioNwK95yMqdUQ73LqQ-36">
          <mxGeometry x="260" y="1074" width="120" height="80" as="geometry" />
        </mxCell>
        <mxCell id="Sg2g_KQ4mxl8zUknpwYj-45" value="F" style="text;html=1;align=center;verticalAlign=middle;resizable=1;points=[];autosize=1;strokeColor=none;fillColor=none;fontFamily=Sarabun;fontSource=https%3A%2F%2Ffonts.googleapis.com%2Fcss%3Ffamily%3DSarabun;fontSize=12;fontColor=default;fontStyle=1;" vertex="1" parent="mvioNwK95yMqdUQ73LqQ-36">
          <mxGeometry x="230" y="740" width="30" height="30" as="geometry" />
        </mxCell>
        <mxCell id="Sg2g_KQ4mxl8zUknpwYj-46" value="T" style="text;html=1;align=center;verticalAlign=middle;resizable=1;points=[];autosize=1;strokeColor=none;fillColor=none;fontFamily=Sarabun;fontSource=https%3A%2F%2Ffonts.googleapis.com%2Fcss%3Ffamily%3DSarabun;fontSize=12;fontColor=default;fontStyle=1;" vertex="1" parent="mvioNwK95yMqdUQ73LqQ-36">
          <mxGeometry x="320" y="800" width="30" height="30" as="geometry" />
        </mxCell>
        <mxCell id="Sg2g_KQ4mxl8zUknpwYj-47" value="ซื้อขนม" style="whiteSpace=wrap;html=1;fontFamily=Sarabun;rounded=0;fontSource=https%3A%2F%2Ffonts.googleapis.com%2Fcss%3Ffamily%3DSarabun;" vertex="1" parent="mvioNwK95yMqdUQ73LqQ-36">
          <mxGeometry x="460" y="1084" width="120" height="60" as="geometry" />
        </mxCell>
        <mxCell id="Sg2g_KQ4mxl8zUknpwYj-59" style="edgeStyle=orthogonalEdgeStyle;rounded=0;orthogonalLoop=1;jettySize=auto;html=1;exitX=0.5;exitY=1;exitDx=0;exitDy=0;exitPerimeter=0;entryX=0.5;entryY=0;entryDx=0;entryDy=0;fontFamily=Sarabun;fontSource=https%3A%2F%2Ffonts.googleapis.com%2Fcss%3Ffamily%3DSarabun;fontSize=12;fontColor=default;fontStyle=1;resizable=1;" edge="1" parent="mvioNwK95yMqdUQ73LqQ-36" source="Sg2g_KQ4mxl8zUknpwYj-51" target="Sg2g_KQ4mxl8zUknpwYj-58">
          <mxGeometry relative="1" as="geometry" />
        </mxCell>
        <mxCell id="Sg2g_KQ4mxl8zUknpwYj-51" value="" style="strokeWidth=2;html=1;shape=mxgraph.flowchart.start_2;whiteSpace=wrap;" vertex="1" parent="mvioNwK95yMqdUQ73LqQ-36">
          <mxGeometry x="310" y="1180" width="20" height="20" as="geometry" />
        </mxCell>
        <mxCell id="Sg2g_KQ4mxl8zUknpwYj-52" style="edgeStyle=orthogonalEdgeStyle;rounded=0;orthogonalLoop=1;jettySize=auto;html=1;exitX=0.5;exitY=1;exitDx=0;exitDy=0;entryX=0.5;entryY=0;entryDx=0;entryDy=0;entryPerimeter=0;fontFamily=Sarabun;fontSource=https%3A%2F%2Ffonts.googleapis.com%2Fcss%3Ffamily%3DSarabun;fontSize=12;fontColor=default;fontStyle=1;resizable=1;" edge="1" parent="mvioNwK95yMqdUQ73LqQ-36" source="Sg2g_KQ4mxl8zUknpwYj-43" target="Sg2g_KQ4mxl8zUknpwYj-51">
          <mxGeometry relative="1" as="geometry" />
        </mxCell>
        <mxCell id="Sg2g_KQ4mxl8zUknpwYj-57" style="edgeStyle=orthogonalEdgeStyle;rounded=0;orthogonalLoop=1;jettySize=auto;html=1;exitX=0.5;exitY=1;exitDx=0;exitDy=0;entryX=1;entryY=0.5;entryDx=0;entryDy=0;entryPerimeter=0;fontFamily=Sarabun;fontSource=https%3A%2F%2Ffonts.googleapis.com%2Fcss%3Ffamily%3DSarabun;fontSize=12;fontColor=default;fontStyle=1;resizable=1;" edge="1" parent="mvioNwK95yMqdUQ73LqQ-36" source="Sg2g_KQ4mxl8zUknpwYj-47" target="Sg2g_KQ4mxl8zUknpwYj-51">
          <mxGeometry relative="1" as="geometry" />
        </mxCell>
        <mxCell id="Sg2g_KQ4mxl8zUknpwYj-63" value="" style="edgeStyle=orthogonalEdgeStyle;rounded=0;orthogonalLoop=1;jettySize=auto;html=1;fontFamily=Sarabun;fontSource=https%3A%2F%2Ffonts.googleapis.com%2Fcss%3Ffamily%3DSarabun;fontSize=12;fontColor=default;fontStyle=1;resizable=1;" edge="1" parent="mvioNwK95yMqdUQ73LqQ-36" source="Sg2g_KQ4mxl8zUknpwYj-58" target="Sg2g_KQ4mxl8zUknpwYj-62">
          <mxGeometry relative="1" as="geometry" />
        </mxCell>
        <mxCell id="Sg2g_KQ4mxl8zUknpwYj-58" value="มองหาไข่ไก่" style="whiteSpace=wrap;html=1;fontFamily=Sarabun;rounded=0;fontSource=https%3A%2F%2Ffonts.googleapis.com%2Fcss%3Ffamily%3DSarabun;" vertex="1" parent="mvioNwK95yMqdUQ73LqQ-36">
          <mxGeometry x="260" y="1250" width="120" height="60" as="geometry" />
        </mxCell>
        <mxCell id="Sg2g_KQ4mxl8zUknpwYj-60" value="F" style="text;html=1;align=center;verticalAlign=middle;resizable=1;points=[];autosize=1;strokeColor=none;fillColor=none;fontFamily=Sarabun;fontSource=https%3A%2F%2Ffonts.googleapis.com%2Fcss%3Ffamily%3DSarabun;fontSize=12;fontColor=default;fontStyle=1;" vertex="1" parent="mvioNwK95yMqdUQ73LqQ-36">
          <mxGeometry x="370" y="1084" width="30" height="30" as="geometry" />
        </mxCell>
        <mxCell id="Sg2g_KQ4mxl8zUknpwYj-61" value="T" style="text;html=1;align=center;verticalAlign=middle;resizable=1;points=[];autosize=1;strokeColor=none;fillColor=none;fontFamily=Sarabun;fontSource=https%3A%2F%2Ffonts.googleapis.com%2Fcss%3Ffamily%3DSarabun;fontSize=12;fontColor=default;fontStyle=1;" vertex="1" parent="mvioNwK95yMqdUQ73LqQ-36">
          <mxGeometry x="320" y="1144" width="30" height="30" as="geometry" />
        </mxCell>
        <mxCell id="Sg2g_KQ4mxl8zUknpwYj-65" style="edgeStyle=orthogonalEdgeStyle;rounded=0;orthogonalLoop=1;jettySize=auto;html=1;exitX=0.5;exitY=1;exitDx=0;exitDy=0;fontFamily=Sarabun;fontSource=https%3A%2F%2Ffonts.googleapis.com%2Fcss%3Ffamily%3DSarabun;fontSize=12;fontColor=default;fontStyle=1;resizable=1;" edge="1" parent="mvioNwK95yMqdUQ73LqQ-36" source="Sg2g_KQ4mxl8zUknpwYj-62" target="Sg2g_KQ4mxl8zUknpwYj-64">
          <mxGeometry relative="1" as="geometry" />
        </mxCell>
        <mxCell id="Sg2g_KQ4mxl8zUknpwYj-67" value="" style="edgeStyle=orthogonalEdgeStyle;rounded=0;orthogonalLoop=1;jettySize=auto;html=1;fontFamily=Sarabun;fontSource=https%3A%2F%2Ffonts.googleapis.com%2Fcss%3Ffamily%3DSarabun;fontSize=12;fontColor=default;fontStyle=1;resizable=1;" edge="1" parent="mvioNwK95yMqdUQ73LqQ-36" source="Sg2g_KQ4mxl8zUknpwYj-62" target="Sg2g_KQ4mxl8zUknpwYj-66">
          <mxGeometry relative="1" as="geometry" />
        </mxCell>
        <mxCell id="Sg2g_KQ4mxl8zUknpwYj-62" value="มีไข่ไก่ขาย" style="rhombus;whiteSpace=wrap;html=1;fontFamily=Sarabun;rounded=0;fontSource=https%3A%2F%2Ffonts.googleapis.com%2Fcss%3Ffamily%3DSarabun;" vertex="1" parent="mvioNwK95yMqdUQ73LqQ-36">
          <mxGeometry x="240" y="1360" width="160" height="80" as="geometry" />
        </mxCell>
        <mxCell id="Sg2g_KQ4mxl8zUknpwYj-69" style="edgeStyle=orthogonalEdgeStyle;rounded=0;orthogonalLoop=1;jettySize=auto;html=1;exitX=0.5;exitY=1;exitDx=0;exitDy=0;exitPerimeter=0;entryX=0.5;entryY=0;entryDx=0;entryDy=0;fontFamily=Sarabun;fontSource=https%3A%2F%2Ffonts.googleapis.com%2Fcss%3Ffamily%3DSarabun;fontSize=12;fontColor=default;fontStyle=1;resizable=1;" edge="1" parent="mvioNwK95yMqdUQ73LqQ-36" source="Sg2g_KQ4mxl8zUknpwYj-64" target="Sg2g_KQ4mxl8zUknpwYj-68">
          <mxGeometry relative="1" as="geometry" />
        </mxCell>
        <mxCell id="Sg2g_KQ4mxl8zUknpwYj-64" value="" style="strokeWidth=2;html=1;shape=mxgraph.flowchart.start_2;whiteSpace=wrap;" vertex="1" parent="mvioNwK95yMqdUQ73LqQ-36">
          <mxGeometry x="310" y="1480" width="20" height="20" as="geometry" />
        </mxCell>
        <mxCell id="Sg2g_KQ4mxl8zUknpwYj-66" value="เอาไส้กรอก" style="whiteSpace=wrap;html=1;fontFamily=Sarabun;rounded=0;fontSource=https%3A%2F%2Ffonts.googleapis.com%2Fcss%3Ffamily%3DSarabun;" vertex="1" parent="mvioNwK95yMqdUQ73LqQ-36">
          <mxGeometry x="20" y="1370" width="120" height="60" as="geometry" />
        </mxCell>
        <mxCell id="Sg2g_KQ4mxl8zUknpwYj-72" value="" style="edgeStyle=orthogonalEdgeStyle;rounded=0;orthogonalLoop=1;jettySize=auto;html=1;fontFamily=Sarabun;fontSource=https%3A%2F%2Ffonts.googleapis.com%2Fcss%3Ffamily%3DSarabun;fontSize=12;fontColor=default;fontStyle=1;resizable=1;" edge="1" parent="mvioNwK95yMqdUQ73LqQ-36" source="Sg2g_KQ4mxl8zUknpwYj-75" target="Sg2g_KQ4mxl8zUknpwYj-71">
          <mxGeometry relative="1" as="geometry" />
        </mxCell>
        <mxCell id="Sg2g_KQ4mxl8zUknpwYj-68" value="เดินไปจ่ายตัง" style="whiteSpace=wrap;html=1;fontFamily=Sarabun;rounded=0;fontSource=https%3A%2F%2Ffonts.googleapis.com%2Fcss%3Ffamily%3DSarabun;" vertex="1" parent="mvioNwK95yMqdUQ73LqQ-36">
          <mxGeometry x="260" y="1540" width="120" height="60" as="geometry" />
        </mxCell>
        <mxCell id="Sg2g_KQ4mxl8zUknpwYj-70" style="edgeStyle=orthogonalEdgeStyle;rounded=0;orthogonalLoop=1;jettySize=auto;html=1;exitX=0.5;exitY=1;exitDx=0;exitDy=0;entryX=0;entryY=0.5;entryDx=0;entryDy=0;entryPerimeter=0;fontFamily=Sarabun;fontSource=https%3A%2F%2Ffonts.googleapis.com%2Fcss%3Ffamily%3DSarabun;fontSize=12;fontColor=default;fontStyle=1;resizable=1;" edge="1" parent="mvioNwK95yMqdUQ73LqQ-36" source="Sg2g_KQ4mxl8zUknpwYj-66" target="Sg2g_KQ4mxl8zUknpwYj-64">
          <mxGeometry relative="1" as="geometry" />
        </mxCell>
        <mxCell id="Sg2g_KQ4mxl8zUknpwYj-74" value="" style="edgeStyle=orthogonalEdgeStyle;rounded=0;orthogonalLoop=1;jettySize=auto;html=1;fontFamily=Sarabun;fontSource=https%3A%2F%2Ffonts.googleapis.com%2Fcss%3Ffamily%3DSarabun;fontSize=12;fontColor=default;fontStyle=1;resizable=1;" edge="1" parent="mvioNwK95yMqdUQ73LqQ-36" source="Sg2g_KQ4mxl8zUknpwYj-71" target="Sg2g_KQ4mxl8zUknpwYj-73">
          <mxGeometry relative="1" as="geometry" />
        </mxCell>
        <mxCell id="Sg2g_KQ4mxl8zUknpwYj-80" value="" style="edgeStyle=orthogonalEdgeStyle;rounded=0;orthogonalLoop=1;jettySize=auto;html=1;fontFamily=Sarabun;fontSource=https%3A%2F%2Ffonts.googleapis.com%2Fcss%3Ffamily%3DSarabun;fontSize=12;fontColor=default;fontStyle=1;resizable=1;" edge="1" parent="mvioNwK95yMqdUQ73LqQ-36" source="Sg2g_KQ4mxl8zUknpwYj-71" target="Sg2g_KQ4mxl8zUknpwYj-79">
          <mxGeometry relative="1" as="geometry" />
        </mxCell>
        <mxCell id="Sg2g_KQ4mxl8zUknpwYj-71" value="ราคารวมทั้งหมด &amp;lt;= 20" style="rhombus;whiteSpace=wrap;html=1;fontFamily=Sarabun;rounded=0;fontSource=https%3A%2F%2Ffonts.googleapis.com%2Fcss%3Ffamily%3DSarabun;" vertex="1" parent="mvioNwK95yMqdUQ73LqQ-36">
          <mxGeometry x="245" y="1680" width="150" height="80" as="geometry" />
        </mxCell>
        <mxCell id="Sg2g_KQ4mxl8zUknpwYj-73" value="ต่อรองราคา" style="whiteSpace=wrap;html=1;fontFamily=Sarabun;rounded=0;fontSource=https%3A%2F%2Ffonts.googleapis.com%2Fcss%3Ffamily%3DSarabun;" vertex="1" parent="mvioNwK95yMqdUQ73LqQ-36">
          <mxGeometry x="490" y="1690" width="120" height="60" as="geometry" />
        </mxCell>
        <mxCell id="Sg2g_KQ4mxl8zUknpwYj-75" value="" style="strokeWidth=2;html=1;shape=mxgraph.flowchart.start_2;whiteSpace=wrap;" vertex="1" parent="mvioNwK95yMqdUQ73LqQ-36">
          <mxGeometry x="310" y="1630" width="20" height="20" as="geometry" />
        </mxCell>
        <mxCell id="Sg2g_KQ4mxl8zUknpwYj-76" value="" style="edgeStyle=orthogonalEdgeStyle;rounded=0;orthogonalLoop=1;jettySize=auto;html=1;fontFamily=Sarabun;fontSource=https%3A%2F%2Ffonts.googleapis.com%2Fcss%3Ffamily%3DSarabun;fontSize=12;fontColor=default;fontStyle=1;resizable=1;" edge="1" parent="mvioNwK95yMqdUQ73LqQ-36" source="Sg2g_KQ4mxl8zUknpwYj-68" target="Sg2g_KQ4mxl8zUknpwYj-75">
          <mxGeometry relative="1" as="geometry">
            <mxPoint x="-440" y="2240" as="sourcePoint" />
            <mxPoint x="-440" y="2320" as="targetPoint" />
          </mxGeometry>
        </mxCell>
        <mxCell id="Sg2g_KQ4mxl8zUknpwYj-77" style="edgeStyle=orthogonalEdgeStyle;rounded=0;orthogonalLoop=1;jettySize=auto;html=1;exitX=0.5;exitY=0;exitDx=0;exitDy=0;entryX=1;entryY=0.5;entryDx=0;entryDy=0;entryPerimeter=0;fontFamily=Sarabun;fontSource=https%3A%2F%2Ffonts.googleapis.com%2Fcss%3Ffamily%3DSarabun;fontSize=12;fontColor=default;fontStyle=1;resizable=1;" edge="1" parent="mvioNwK95yMqdUQ73LqQ-36" source="Sg2g_KQ4mxl8zUknpwYj-73" target="Sg2g_KQ4mxl8zUknpwYj-75">
          <mxGeometry relative="1" as="geometry" />
        </mxCell>
        <mxCell id="Sg2g_KQ4mxl8zUknpwYj-82" value="" style="edgeStyle=orthogonalEdgeStyle;rounded=0;orthogonalLoop=1;jettySize=auto;html=1;fontFamily=Sarabun;fontSource=https%3A%2F%2Ffonts.googleapis.com%2Fcss%3Ffamily%3DSarabun;fontSize=12;fontColor=default;fontStyle=1;resizable=1;" edge="1" parent="mvioNwK95yMqdUQ73LqQ-36" source="Sg2g_KQ4mxl8zUknpwYj-79" target="Sg2g_KQ4mxl8zUknpwYj-81">
          <mxGeometry relative="1" as="geometry" />
        </mxCell>
        <mxCell id="Sg2g_KQ4mxl8zUknpwYj-79" value="จ่ายตัง" style="whiteSpace=wrap;html=1;fontFamily=Sarabun;rounded=0;fontSource=https%3A%2F%2Ffonts.googleapis.com%2Fcss%3Ffamily%3DSarabun;" vertex="1" parent="mvioNwK95yMqdUQ73LqQ-36">
          <mxGeometry x="260" y="1810" width="120" height="60" as="geometry" />
        </mxCell>
        <mxCell id="Sg2g_KQ4mxl8zUknpwYj-84" value="" style="edgeStyle=orthogonalEdgeStyle;rounded=0;orthogonalLoop=1;jettySize=auto;html=1;fontFamily=Sarabun;fontSource=https%3A%2F%2Ffonts.googleapis.com%2Fcss%3Ffamily%3DSarabun;fontSize=12;fontColor=default;fontStyle=1;resizable=1;" edge="1" parent="mvioNwK95yMqdUQ73LqQ-36" source="Sg2g_KQ4mxl8zUknpwYj-81" target="Sg2g_KQ4mxl8zUknpwYj-83">
          <mxGeometry relative="1" as="geometry" />
        </mxCell>
        <mxCell id="Sg2g_KQ4mxl8zUknpwYj-81" value="เดินกลับบ้าน" style="whiteSpace=wrap;html=1;fontFamily=Sarabun;rounded=0;fontSource=https%3A%2F%2Ffonts.googleapis.com%2Fcss%3Ffamily%3DSarabun;" vertex="1" parent="mvioNwK95yMqdUQ73LqQ-36">
          <mxGeometry x="260" y="1900" width="120" height="60" as="geometry" />
        </mxCell>
        <mxCell id="Sg2g_KQ4mxl8zUknpwYj-86" value="" style="edgeStyle=orthogonalEdgeStyle;rounded=0;orthogonalLoop=1;jettySize=auto;html=1;fontFamily=Sarabun;fontSource=https%3A%2F%2Ffonts.googleapis.com%2Fcss%3Ffamily%3DSarabun;fontSize=12;fontColor=default;fontStyle=1;resizable=1;" edge="1" parent="mvioNwK95yMqdUQ73LqQ-36" source="Sg2g_KQ4mxl8zUknpwYj-83" target="Sg2g_KQ4mxl8zUknpwYj-85">
          <mxGeometry relative="1" as="geometry" />
        </mxCell>
        <mxCell id="Sg2g_KQ4mxl8zUknpwYj-83" value="เข้าครัว" style="whiteSpace=wrap;html=1;fontFamily=Sarabun;rounded=0;fontSource=https%3A%2F%2Ffonts.googleapis.com%2Fcss%3Ffamily%3DSarabun;" vertex="1" parent="mvioNwK95yMqdUQ73LqQ-36">
          <mxGeometry x="260" y="1990" width="120" height="60" as="geometry" />
        </mxCell>
        <mxCell id="Sg2g_KQ4mxl8zUknpwYj-88" value="" style="edgeStyle=orthogonalEdgeStyle;rounded=0;orthogonalLoop=1;jettySize=auto;html=1;fontFamily=Sarabun;fontSource=https%3A%2F%2Ffonts.googleapis.com%2Fcss%3Ffamily%3DSarabun;fontSize=12;fontColor=default;fontStyle=1;resizable=1;" edge="1" parent="mvioNwK95yMqdUQ73LqQ-36" source="Sg2g_KQ4mxl8zUknpwYj-85" target="Sg2g_KQ4mxl8zUknpwYj-87">
          <mxGeometry relative="1" as="geometry" />
        </mxCell>
        <mxCell id="Sg2g_KQ4mxl8zUknpwYj-85" value="ตั้งกระทะไว้ที่เตาแก้ส" style="whiteSpace=wrap;html=1;fontFamily=Sarabun;rounded=0;fontSource=https%3A%2F%2Ffonts.googleapis.com%2Fcss%3Ffamily%3DSarabun;" vertex="1" parent="mvioNwK95yMqdUQ73LqQ-36">
          <mxGeometry x="260" y="2080" width="120" height="60" as="geometry" />
        </mxCell>
        <mxCell id="Sg2g_KQ4mxl8zUknpwYj-95" value="" style="edgeStyle=orthogonalEdgeStyle;rounded=0;orthogonalLoop=1;jettySize=auto;html=1;fontFamily=Sarabun;fontSource=https%3A%2F%2Ffonts.googleapis.com%2Fcss%3Ffamily%3DSarabun;fontSize=12;fontColor=default;fontStyle=1;resizable=1;" edge="1" parent="mvioNwK95yMqdUQ73LqQ-36" source="Sg2g_KQ4mxl8zUknpwYj-87" target="Sg2g_KQ4mxl8zUknpwYj-94">
          <mxGeometry relative="1" as="geometry" />
        </mxCell>
        <mxCell id="Sg2g_KQ4mxl8zUknpwYj-87" value="เปิดแก้ส" style="whiteSpace=wrap;html=1;fontFamily=Sarabun;rounded=0;fontSource=https%3A%2F%2Ffonts.googleapis.com%2Fcss%3Ffamily%3DSarabun;" vertex="1" parent="mvioNwK95yMqdUQ73LqQ-36">
          <mxGeometry x="260" y="2170" width="120" height="60" as="geometry" />
        </mxCell>
        <mxCell id="Sg2g_KQ4mxl8zUknpwYj-97" value="" style="edgeStyle=orthogonalEdgeStyle;rounded=0;orthogonalLoop=1;jettySize=auto;html=1;fontFamily=Sarabun;fontSource=https%3A%2F%2Ffonts.googleapis.com%2Fcss%3Ffamily%3DSarabun;fontSize=12;fontColor=default;fontStyle=1;resizable=1;" edge="1" parent="mvioNwK95yMqdUQ73LqQ-36" source="Sg2g_KQ4mxl8zUknpwYj-94" target="Sg2g_KQ4mxl8zUknpwYj-96">
          <mxGeometry relative="1" as="geometry" />
        </mxCell>
        <mxCell id="Sg2g_KQ4mxl8zUknpwYj-103" value="" style="edgeStyle=orthogonalEdgeStyle;rounded=0;orthogonalLoop=1;jettySize=auto;html=1;fontFamily=Sarabun;fontSource=https%3A%2F%2Ffonts.googleapis.com%2Fcss%3Ffamily%3DSarabun;fontSize=12;fontColor=default;fontStyle=1;resizable=1;" edge="1" parent="mvioNwK95yMqdUQ73LqQ-36" source="Sg2g_KQ4mxl8zUknpwYj-104" target="Sg2g_KQ4mxl8zUknpwYj-102">
          <mxGeometry relative="1" as="geometry" />
        </mxCell>
        <mxCell id="Sg2g_KQ4mxl8zUknpwYj-94" value="แก้สไม่หมด" style="rhombus;whiteSpace=wrap;html=1;fontFamily=Sarabun;rounded=0;fontSource=https%3A%2F%2Ffonts.googleapis.com%2Fcss%3Ffamily%3DSarabun;" vertex="1" parent="mvioNwK95yMqdUQ73LqQ-36">
          <mxGeometry x="255" y="2270" width="130" height="80" as="geometry" />
        </mxCell>
        <mxCell id="Sg2g_KQ4mxl8zUknpwYj-99" value="" style="edgeStyle=orthogonalEdgeStyle;rounded=0;orthogonalLoop=1;jettySize=auto;html=1;fontFamily=Sarabun;fontSource=https%3A%2F%2Ffonts.googleapis.com%2Fcss%3Ffamily%3DSarabun;fontSize=12;fontColor=default;fontStyle=1;resizable=1;" edge="1" parent="mvioNwK95yMqdUQ73LqQ-36" source="Sg2g_KQ4mxl8zUknpwYj-96" target="Sg2g_KQ4mxl8zUknpwYj-98">
          <mxGeometry relative="1" as="geometry" />
        </mxCell>
        <mxCell id="Sg2g_KQ4mxl8zUknpwYj-96" value="ตั้งกระทะไว้ที่เตาไฟฟ้า" style="whiteSpace=wrap;html=1;fontFamily=Sarabun;rounded=0;fontSource=https%3A%2F%2Ffonts.googleapis.com%2Fcss%3Ffamily%3DSarabun;" vertex="1" parent="mvioNwK95yMqdUQ73LqQ-36">
          <mxGeometry x="470" y="2280" width="120" height="60" as="geometry" />
        </mxCell>
        <mxCell id="Sg2g_KQ4mxl8zUknpwYj-98" value="เสียบไฟเข้าเตาไฟฟ้าตั้งอุณภูมิเป็นแบบต้ม" style="whiteSpace=wrap;html=1;fontFamily=Sarabun;rounded=0;fontSource=https%3A%2F%2Ffonts.googleapis.com%2Fcss%3Ffamily%3DSarabun;" vertex="1" parent="mvioNwK95yMqdUQ73LqQ-36">
          <mxGeometry x="470" y="2360" width="120" height="60" as="geometry" />
        </mxCell>
        <mxCell id="Sg2g_KQ4mxl8zUknpwYj-114" value="" style="edgeStyle=orthogonalEdgeStyle;rounded=0;orthogonalLoop=1;jettySize=auto;html=1;fontFamily=Sarabun;fontSource=https%3A%2F%2Ffonts.googleapis.com%2Fcss%3Ffamily%3DSarabun;fontSize=12;fontColor=default;fontStyle=1;resizable=1;" edge="1" parent="mvioNwK95yMqdUQ73LqQ-36" source="Sg2g_KQ4mxl8zUknpwYj-117" target="Sg2g_KQ4mxl8zUknpwYj-113">
          <mxGeometry relative="1" as="geometry" />
        </mxCell>
        <mxCell id="Sg2g_KQ4mxl8zUknpwYj-102" value="เทน้ำลงกระทะ" style="whiteSpace=wrap;html=1;fontFamily=Sarabun;rounded=0;fontSource=https%3A%2F%2Ffonts.googleapis.com%2Fcss%3Ffamily%3DSarabun;" vertex="1" parent="mvioNwK95yMqdUQ73LqQ-36">
          <mxGeometry x="260" y="2440" width="120" height="60" as="geometry" />
        </mxCell>
        <mxCell id="Sg2g_KQ4mxl8zUknpwYj-104" value="" style="strokeWidth=2;html=1;shape=mxgraph.flowchart.start_2;whiteSpace=wrap;" vertex="1" parent="mvioNwK95yMqdUQ73LqQ-36">
          <mxGeometry x="310" y="2380" width="20" height="20" as="geometry" />
        </mxCell>
        <mxCell id="Sg2g_KQ4mxl8zUknpwYj-105" value="" style="edgeStyle=orthogonalEdgeStyle;rounded=0;orthogonalLoop=1;jettySize=auto;html=1;fontFamily=Sarabun;fontSource=https%3A%2F%2Ffonts.googleapis.com%2Fcss%3Ffamily%3DSarabun;fontSize=12;fontColor=default;fontStyle=1;resizable=1;" edge="1" parent="mvioNwK95yMqdUQ73LqQ-36" source="Sg2g_KQ4mxl8zUknpwYj-94" target="Sg2g_KQ4mxl8zUknpwYj-104">
          <mxGeometry relative="1" as="geometry">
            <mxPoint x="-440" y="2990" as="sourcePoint" />
            <mxPoint x="-440" y="3080" as="targetPoint" />
          </mxGeometry>
        </mxCell>
        <mxCell id="Sg2g_KQ4mxl8zUknpwYj-106" style="edgeStyle=orthogonalEdgeStyle;rounded=0;orthogonalLoop=1;jettySize=auto;html=1;exitX=0;exitY=0.5;exitDx=0;exitDy=0;entryX=1;entryY=0.5;entryDx=0;entryDy=0;entryPerimeter=0;fontFamily=Sarabun;fontSource=https%3A%2F%2Ffonts.googleapis.com%2Fcss%3Ffamily%3DSarabun;fontSize=12;fontColor=default;fontStyle=1;resizable=1;" edge="1" parent="mvioNwK95yMqdUQ73LqQ-36" source="Sg2g_KQ4mxl8zUknpwYj-98" target="Sg2g_KQ4mxl8zUknpwYj-104">
          <mxGeometry relative="1" as="geometry" />
        </mxCell>
        <mxCell id="Sg2g_KQ4mxl8zUknpwYj-116" value="" style="edgeStyle=orthogonalEdgeStyle;rounded=0;orthogonalLoop=1;jettySize=auto;html=1;fontFamily=Sarabun;fontSource=https%3A%2F%2Ffonts.googleapis.com%2Fcss%3Ffamily%3DSarabun;fontSize=12;fontColor=default;fontStyle=1;resizable=1;" edge="1" parent="mvioNwK95yMqdUQ73LqQ-36" source="Sg2g_KQ4mxl8zUknpwYj-113" target="Sg2g_KQ4mxl8zUknpwYj-115">
          <mxGeometry relative="1" as="geometry" />
        </mxCell>
        <mxCell id="Sg2g_KQ4mxl8zUknpwYj-123" value="" style="edgeStyle=orthogonalEdgeStyle;rounded=0;orthogonalLoop=1;jettySize=auto;html=1;fontFamily=Sarabun;fontSource=https%3A%2F%2Ffonts.googleapis.com%2Fcss%3Ffamily%3DSarabun;fontSize=12;fontColor=default;fontStyle=1;resizable=1;" edge="1" parent="mvioNwK95yMqdUQ73LqQ-36" source="Sg2g_KQ4mxl8zUknpwYj-113" target="Sg2g_KQ4mxl8zUknpwYj-122">
          <mxGeometry relative="1" as="geometry" />
        </mxCell>
        <mxCell id="Sg2g_KQ4mxl8zUknpwYj-113" value="หากน้ำเดือด" style="rhombus;whiteSpace=wrap;html=1;fontFamily=Sarabun;rounded=0;fontSource=https%3A%2F%2Ffonts.googleapis.com%2Fcss%3Ffamily%3DSarabun;" vertex="1" parent="mvioNwK95yMqdUQ73LqQ-36">
          <mxGeometry x="260" y="2570" width="120" height="80" as="geometry" />
        </mxCell>
        <mxCell id="Sg2g_KQ4mxl8zUknpwYj-115" value="รอน้ำเดือด" style="whiteSpace=wrap;html=1;fontFamily=Sarabun;rounded=0;fontSource=https%3A%2F%2Ffonts.googleapis.com%2Fcss%3Ffamily%3DSarabun;" vertex="1" parent="mvioNwK95yMqdUQ73LqQ-36">
          <mxGeometry x="460" y="2580" width="120" height="60" as="geometry" />
        </mxCell>
        <mxCell id="Sg2g_KQ4mxl8zUknpwYj-117" value="" style="strokeWidth=2;html=1;shape=mxgraph.flowchart.start_2;whiteSpace=wrap;" vertex="1" parent="mvioNwK95yMqdUQ73LqQ-36">
          <mxGeometry x="310" y="2530" width="20" height="20" as="geometry" />
        </mxCell>
        <mxCell id="Sg2g_KQ4mxl8zUknpwYj-118" value="" style="edgeStyle=orthogonalEdgeStyle;rounded=0;orthogonalLoop=1;jettySize=auto;html=1;fontFamily=Sarabun;fontSource=https%3A%2F%2Ffonts.googleapis.com%2Fcss%3Ffamily%3DSarabun;fontSize=12;fontColor=default;fontStyle=1;resizable=1;" edge="1" parent="mvioNwK95yMqdUQ73LqQ-36" source="Sg2g_KQ4mxl8zUknpwYj-102" target="Sg2g_KQ4mxl8zUknpwYj-117">
          <mxGeometry relative="1" as="geometry">
            <mxPoint x="-440" y="3140" as="sourcePoint" />
            <mxPoint x="-440" y="3170" as="targetPoint" />
          </mxGeometry>
        </mxCell>
        <mxCell id="Sg2g_KQ4mxl8zUknpwYj-119" style="edgeStyle=orthogonalEdgeStyle;rounded=0;orthogonalLoop=1;jettySize=auto;html=1;exitX=0.5;exitY=0;exitDx=0;exitDy=0;entryX=1;entryY=0.5;entryDx=0;entryDy=0;entryPerimeter=0;fontFamily=Sarabun;fontSource=https%3A%2F%2Ffonts.googleapis.com%2Fcss%3Ffamily%3DSarabun;fontSize=12;fontColor=default;fontStyle=1;resizable=1;" edge="1" parent="mvioNwK95yMqdUQ73LqQ-36" source="Sg2g_KQ4mxl8zUknpwYj-115" target="Sg2g_KQ4mxl8zUknpwYj-117">
          <mxGeometry relative="1" as="geometry" />
        </mxCell>
        <mxCell id="Sg2g_KQ4mxl8zUknpwYj-127" value="" style="edgeStyle=orthogonalEdgeStyle;rounded=0;orthogonalLoop=1;jettySize=auto;html=1;fontFamily=Sarabun;fontSource=https%3A%2F%2Ffonts.googleapis.com%2Fcss%3Ffamily%3DSarabun;fontSize=12;fontColor=default;fontStyle=1;resizable=1;" edge="1" parent="mvioNwK95yMqdUQ73LqQ-36" source="Sg2g_KQ4mxl8zUknpwYj-122" target="Sg2g_KQ4mxl8zUknpwYj-126">
          <mxGeometry relative="1" as="geometry" />
        </mxCell>
        <mxCell id="Sg2g_KQ4mxl8zUknpwYj-122" value="แกะซองมาม่า" style="whiteSpace=wrap;html=1;fontFamily=Sarabun;rounded=0;fontSource=https%3A%2F%2Ffonts.googleapis.com%2Fcss%3Ffamily%3DSarabun;" vertex="1" parent="mvioNwK95yMqdUQ73LqQ-36">
          <mxGeometry x="260" y="2680" width="120" height="60" as="geometry" />
        </mxCell>
        <mxCell id="Sg2g_KQ4mxl8zUknpwYj-125" value="" style="verticalLabelPosition=bottom;verticalAlign=top;html=1;shape=offPageConnector;rounded=0;size=0.5;" vertex="1" parent="mvioNwK95yMqdUQ73LqQ-36">
          <mxGeometry x="305" y="2760" width="30" height="30" as="geometry" />
        </mxCell>
        <mxCell id="Sg2g_KQ4mxl8zUknpwYj-126" value="ก" style="text;html=1;align=center;verticalAlign=middle;resizable=1;points=[];autosize=1;strokeColor=none;fillColor=none;fontFamily=Sarabun;fontSource=https%3A%2F%2Ffonts.googleapis.com%2Fcss%3Ffamily%3DSarabun;fontSize=12;fontColor=default;fontStyle=1;" vertex="1" parent="mvioNwK95yMqdUQ73LqQ-36">
          <mxGeometry x="305" y="2760" width="30" height="30" as="geometry" />
        </mxCell>
        <mxCell id="Sg2g_KQ4mxl8zUknpwYj-128" value="" style="verticalLabelPosition=bottom;verticalAlign=top;html=1;shape=offPageConnector;rounded=0;size=0.5;" vertex="1" parent="mvioNwK95yMqdUQ73LqQ-36">
          <mxGeometry x="1100" y="50" width="30" height="30" as="geometry" />
        </mxCell>
        <mxCell id="Sg2g_KQ4mxl8zUknpwYj-131" value="" style="edgeStyle=orthogonalEdgeStyle;rounded=0;orthogonalLoop=1;jettySize=auto;html=1;fontFamily=Sarabun;fontSource=https%3A%2F%2Ffonts.googleapis.com%2Fcss%3Ffamily%3DSarabun;fontSize=12;fontColor=default;fontStyle=1;resizable=1;" edge="1" parent="mvioNwK95yMqdUQ73LqQ-36" source="Sg2g_KQ4mxl8zUknpwYj-129" target="Sg2g_KQ4mxl8zUknpwYj-130">
          <mxGeometry relative="1" as="geometry" />
        </mxCell>
        <mxCell id="Sg2g_KQ4mxl8zUknpwYj-129" value="ก" style="text;html=1;align=center;verticalAlign=middle;resizable=1;points=[];autosize=1;strokeColor=none;fillColor=none;fontFamily=Sarabun;fontSource=https%3A%2F%2Ffonts.googleapis.com%2Fcss%3Ffamily%3DSarabun;fontSize=12;fontColor=default;fontStyle=1;" vertex="1" parent="mvioNwK95yMqdUQ73LqQ-36">
          <mxGeometry x="1100" y="50" width="30" height="30" as="geometry" />
        </mxCell>
        <mxCell id="Sg2g_KQ4mxl8zUknpwYj-139" value="" style="edgeStyle=orthogonalEdgeStyle;rounded=0;orthogonalLoop=1;jettySize=auto;html=1;fontFamily=Sarabun;fontSource=https%3A%2F%2Ffonts.googleapis.com%2Fcss%3Ffamily%3DSarabun;fontSize=12;fontColor=default;fontStyle=1;resizable=1;" edge="1" parent="mvioNwK95yMqdUQ73LqQ-36" source="Sg2g_KQ4mxl8zUknpwYj-130" target="Sg2g_KQ4mxl8zUknpwYj-138">
          <mxGeometry relative="1" as="geometry" />
        </mxCell>
        <mxCell id="Sg2g_KQ4mxl8zUknpwYj-130" value="หยิบเส้นมาม่าใส่ในกระทะ" style="rounded=0;whiteSpace=wrap;html=1;fontFamily=Sarabun;fontSource=https%3A%2F%2Ffonts.googleapis.com%2Fcss%3Ffamily%3DSarabun;" vertex="1" parent="mvioNwK95yMqdUQ73LqQ-36">
          <mxGeometry x="1055" y="110" width="120" height="70" as="geometry" />
        </mxCell>
        <mxCell id="Sg2g_KQ4mxl8zUknpwYj-141" value="" style="edgeStyle=orthogonalEdgeStyle;rounded=0;orthogonalLoop=1;jettySize=auto;html=1;fontFamily=Sarabun;fontSource=https%3A%2F%2Ffonts.googleapis.com%2Fcss%3Ffamily%3DSarabun;fontSize=12;fontColor=default;fontStyle=1;resizable=1;" edge="1" parent="mvioNwK95yMqdUQ73LqQ-36" source="Sg2g_KQ4mxl8zUknpwYj-138" target="Sg2g_KQ4mxl8zUknpwYj-140">
          <mxGeometry relative="1" as="geometry" />
        </mxCell>
        <mxCell id="Sg2g_KQ4mxl8zUknpwYj-143" value="" style="edgeStyle=orthogonalEdgeStyle;rounded=0;orthogonalLoop=1;jettySize=auto;html=1;fontFamily=Sarabun;fontSource=https%3A%2F%2Ffonts.googleapis.com%2Fcss%3Ffamily%3DSarabun;fontSize=12;fontColor=default;fontStyle=1;resizable=1;" edge="1" parent="mvioNwK95yMqdUQ73LqQ-36" source="Sg2g_KQ4mxl8zUknpwYj-138" target="Sg2g_KQ4mxl8zUknpwYj-142">
          <mxGeometry relative="1" as="geometry" />
        </mxCell>
        <mxCell id="Sg2g_KQ4mxl8zUknpwYj-138" value="มีผักกาด" style="rhombus;whiteSpace=wrap;html=1;fontFamily=Sarabun;rounded=0;fontSource=https%3A%2F%2Ffonts.googleapis.com%2Fcss%3Ffamily%3DSarabun;" vertex="1" parent="mvioNwK95yMqdUQ73LqQ-36">
          <mxGeometry x="1052.5" y="220" width="125" height="80" as="geometry" />
        </mxCell>
        <mxCell id="Sg2g_KQ4mxl8zUknpwYj-140" value="ไม่ใส่" style="whiteSpace=wrap;html=1;fontFamily=Sarabun;rounded=0;fontSource=https%3A%2F%2Ffonts.googleapis.com%2Fcss%3Ffamily%3DSarabun;" vertex="1" parent="mvioNwK95yMqdUQ73LqQ-36">
          <mxGeometry x="1260" y="230" width="120" height="60" as="geometry" />
        </mxCell>
        <mxCell id="Sg2g_KQ4mxl8zUknpwYj-145" value="" style="edgeStyle=orthogonalEdgeStyle;rounded=0;orthogonalLoop=1;jettySize=auto;html=1;fontFamily=Sarabun;fontSource=https%3A%2F%2Ffonts.googleapis.com%2Fcss%3Ffamily%3DSarabun;fontSize=12;fontColor=default;fontStyle=1;resizable=1;" edge="1" parent="mvioNwK95yMqdUQ73LqQ-36" source="Sg2g_KQ4mxl8zUknpwYj-142" target="Sg2g_KQ4mxl8zUknpwYj-144">
          <mxGeometry relative="1" as="geometry" />
        </mxCell>
        <mxCell id="Sg2g_KQ4mxl8zUknpwYj-142" value="หยิบผักกาดมาหันเป็นชิันๆ" style="whiteSpace=wrap;html=1;fontFamily=Sarabun;rounded=0;fontSource=https%3A%2F%2Ffonts.googleapis.com%2Fcss%3Ffamily%3DSarabun;" vertex="1" parent="mvioNwK95yMqdUQ73LqQ-36">
          <mxGeometry x="1055" y="340" width="120" height="60" as="geometry" />
        </mxCell>
        <mxCell id="Sg2g_KQ4mxl8zUknpwYj-149" value="" style="edgeStyle=orthogonalEdgeStyle;rounded=0;orthogonalLoop=1;jettySize=auto;html=1;fontFamily=Sarabun;fontSource=https%3A%2F%2Ffonts.googleapis.com%2Fcss%3Ffamily%3DSarabun;fontSize=12;fontColor=default;fontStyle=1;resizable=1;" edge="1" parent="mvioNwK95yMqdUQ73LqQ-36" source="Sg2g_KQ4mxl8zUknpwYj-144" target="Sg2g_KQ4mxl8zUknpwYj-148">
          <mxGeometry relative="1" as="geometry" />
        </mxCell>
        <mxCell id="Sg2g_KQ4mxl8zUknpwYj-144" value="ใส่ผักกาดใส่ลงในกระทะ" style="whiteSpace=wrap;html=1;fontFamily=Sarabun;rounded=0;fontSource=https%3A%2F%2Ffonts.googleapis.com%2Fcss%3Ffamily%3DSarabun;" vertex="1" parent="mvioNwK95yMqdUQ73LqQ-36">
          <mxGeometry x="1055" y="440" width="120" height="60" as="geometry" />
        </mxCell>
        <mxCell id="Sg2g_KQ4mxl8zUknpwYj-151" value="" style="edgeStyle=orthogonalEdgeStyle;rounded=0;orthogonalLoop=1;jettySize=auto;html=1;fontFamily=Sarabun;fontSource=https%3A%2F%2Ffonts.googleapis.com%2Fcss%3Ffamily%3DSarabun;fontSize=12;fontColor=default;fontStyle=1;resizable=1;" edge="1" parent="mvioNwK95yMqdUQ73LqQ-36" source="Sg2g_KQ4mxl8zUknpwYj-148" target="Sg2g_KQ4mxl8zUknpwYj-150">
          <mxGeometry relative="1" as="geometry" />
        </mxCell>
        <mxCell id="Sg2g_KQ4mxl8zUknpwYj-155" value="" style="edgeStyle=orthogonalEdgeStyle;rounded=0;orthogonalLoop=1;jettySize=auto;html=1;fontFamily=Sarabun;fontSource=https%3A%2F%2Ffonts.googleapis.com%2Fcss%3Ffamily%3DSarabun;fontSize=12;fontColor=default;fontStyle=1;resizable=1;" edge="1" parent="mvioNwK95yMqdUQ73LqQ-36" source="Sg2g_KQ4mxl8zUknpwYj-148" target="Sg2g_KQ4mxl8zUknpwYj-154">
          <mxGeometry relative="1" as="geometry" />
        </mxCell>
        <mxCell id="Sg2g_KQ4mxl8zUknpwYj-148" value="มีไข่ไก่" style="rhombus;whiteSpace=wrap;html=1;fontFamily=Sarabun;rounded=0;fontSource=https%3A%2F%2Ffonts.googleapis.com%2Fcss%3Ffamily%3DSarabun;" vertex="1" parent="mvioNwK95yMqdUQ73LqQ-36">
          <mxGeometry x="1042.5" y="540" width="145" height="80" as="geometry" />
        </mxCell>
        <mxCell id="Sg2g_KQ4mxl8zUknpwYj-153" value="" style="edgeStyle=orthogonalEdgeStyle;rounded=0;orthogonalLoop=1;jettySize=auto;html=1;fontFamily=Sarabun;fontSource=https%3A%2F%2Ffonts.googleapis.com%2Fcss%3Ffamily%3DSarabun;fontSize=12;fontColor=default;fontStyle=1;resizable=1;" edge="1" parent="mvioNwK95yMqdUQ73LqQ-36" source="Sg2g_KQ4mxl8zUknpwYj-150" target="Sg2g_KQ4mxl8zUknpwYj-152">
          <mxGeometry relative="1" as="geometry" />
        </mxCell>
        <mxCell id="Sg2g_KQ4mxl8zUknpwYj-150" value="หยิบไส้กรอกออกมาหันเป็นชิ้นๆ" style="whiteSpace=wrap;html=1;fontFamily=Sarabun;rounded=0;fontSource=https%3A%2F%2Ffonts.googleapis.com%2Fcss%3Ffamily%3DSarabun;" vertex="1" parent="mvioNwK95yMqdUQ73LqQ-36">
          <mxGeometry x="1280" y="550" width="120" height="60" as="geometry" />
        </mxCell>
        <mxCell id="Sg2g_KQ4mxl8zUknpwYj-152" value="ใส่ไส้กรอกลงในกระทะ" style="whiteSpace=wrap;html=1;fontFamily=Sarabun;rounded=0;fontSource=https%3A%2F%2Ffonts.googleapis.com%2Fcss%3Ffamily%3DSarabun;" vertex="1" parent="mvioNwK95yMqdUQ73LqQ-36">
          <mxGeometry x="1280" y="660" width="120" height="60" as="geometry" />
        </mxCell>
        <mxCell id="Sg2g_KQ4mxl8zUknpwYj-159" value="" style="edgeStyle=orthogonalEdgeStyle;rounded=0;orthogonalLoop=1;jettySize=auto;html=1;fontFamily=Sarabun;fontSource=https%3A%2F%2Ffonts.googleapis.com%2Fcss%3Ffamily%3DSarabun;fontSize=12;fontColor=default;fontStyle=1;resizable=1;" edge="1" parent="mvioNwK95yMqdUQ73LqQ-36" source="Sg2g_KQ4mxl8zUknpwYj-180" target="Sg2g_KQ4mxl8zUknpwYj-158">
          <mxGeometry relative="1" as="geometry" />
        </mxCell>
        <mxCell id="Sg2g_KQ4mxl8zUknpwYj-154" value="ตอกไข่ไก่ลงในกระทะ" style="whiteSpace=wrap;html=1;fontFamily=Sarabun;rounded=0;fontSource=https%3A%2F%2Ffonts.googleapis.com%2Fcss%3Ffamily%3DSarabun;" vertex="1" parent="mvioNwK95yMqdUQ73LqQ-36">
          <mxGeometry x="1055" y="660" width="120" height="60" as="geometry" />
        </mxCell>
        <mxCell id="Sg2g_KQ4mxl8zUknpwYj-161" value="" style="edgeStyle=orthogonalEdgeStyle;rounded=0;orthogonalLoop=1;jettySize=auto;html=1;fontFamily=Sarabun;fontSource=https%3A%2F%2Ffonts.googleapis.com%2Fcss%3Ffamily%3DSarabun;fontSize=12;fontColor=default;fontStyle=1;resizable=1;" edge="1" parent="mvioNwK95yMqdUQ73LqQ-36" source="Sg2g_KQ4mxl8zUknpwYj-158" target="Sg2g_KQ4mxl8zUknpwYj-160">
          <mxGeometry relative="1" as="geometry" />
        </mxCell>
        <mxCell id="Sg2g_KQ4mxl8zUknpwYj-163" value="" style="edgeStyle=orthogonalEdgeStyle;rounded=0;orthogonalLoop=1;jettySize=auto;html=1;fontFamily=Sarabun;fontSource=https%3A%2F%2Ffonts.googleapis.com%2Fcss%3Ffamily%3DSarabun;fontSize=12;fontColor=default;fontStyle=1;resizable=1;" edge="1" parent="mvioNwK95yMqdUQ73LqQ-36" source="Sg2g_KQ4mxl8zUknpwYj-158" target="Sg2g_KQ4mxl8zUknpwYj-162">
          <mxGeometry relative="1" as="geometry" />
        </mxCell>
        <mxCell id="Sg2g_KQ4mxl8zUknpwYj-158" value="มีซองเครื่องปรุงหรือไม่" style="rhombus;whiteSpace=wrap;html=1;fontFamily=Sarabun;rounded=0;fontSource=https%3A%2F%2Ffonts.googleapis.com%2Fcss%3Ffamily%3DSarabun;" vertex="1" parent="mvioNwK95yMqdUQ73LqQ-36">
          <mxGeometry x="1047.5" y="790" width="135" height="80" as="geometry" />
        </mxCell>
        <mxCell id="Sg2g_KQ4mxl8zUknpwYj-160" value="หยิบรสดีโรยใส่ในกระทะ" style="whiteSpace=wrap;html=1;fontFamily=Sarabun;rounded=0;fontSource=https%3A%2F%2Ffonts.googleapis.com%2Fcss%3Ffamily%3DSarabun;" vertex="1" parent="mvioNwK95yMqdUQ73LqQ-36">
          <mxGeometry x="1270" y="800" width="130" height="60" as="geometry" />
        </mxCell>
        <mxCell id="Sg2g_KQ4mxl8zUknpwYj-165" value="" style="edgeStyle=orthogonalEdgeStyle;rounded=0;orthogonalLoop=1;jettySize=auto;html=1;fontFamily=Sarabun;fontSource=https%3A%2F%2Ffonts.googleapis.com%2Fcss%3Ffamily%3DSarabun;fontSize=12;fontColor=default;fontStyle=1;resizable=1;" edge="1" parent="mvioNwK95yMqdUQ73LqQ-36" source="Sg2g_KQ4mxl8zUknpwYj-183" target="Sg2g_KQ4mxl8zUknpwYj-164">
          <mxGeometry relative="1" as="geometry" />
        </mxCell>
        <mxCell id="Sg2g_KQ4mxl8zUknpwYj-162" value="แกะซองเครื่องปรุงลงใส่ในกระทะ" style="whiteSpace=wrap;html=1;fontFamily=Sarabun;rounded=0;fontSource=https%3A%2F%2Ffonts.googleapis.com%2Fcss%3Ffamily%3DSarabun;" vertex="1" parent="mvioNwK95yMqdUQ73LqQ-36">
          <mxGeometry x="1055" y="900" width="120" height="60" as="geometry" />
        </mxCell>
        <mxCell id="Sg2g_KQ4mxl8zUknpwYj-167" value="" style="edgeStyle=orthogonalEdgeStyle;rounded=0;orthogonalLoop=1;jettySize=auto;html=1;fontFamily=Sarabun;fontSource=https%3A%2F%2Ffonts.googleapis.com%2Fcss%3Ffamily%3DSarabun;fontSize=12;fontColor=default;fontStyle=1;resizable=1;" edge="1" parent="mvioNwK95yMqdUQ73LqQ-36" source="Sg2g_KQ4mxl8zUknpwYj-186" target="Sg2g_KQ4mxl8zUknpwYj-166">
          <mxGeometry relative="1" as="geometry" />
        </mxCell>
        <mxCell id="Sg2g_KQ4mxl8zUknpwYj-164" value="ขนให้ผงละลาย" style="whiteSpace=wrap;html=1;fontFamily=Sarabun;rounded=0;fontSource=https%3A%2F%2Ffonts.googleapis.com%2Fcss%3Ffamily%3DSarabun;" vertex="1" parent="mvioNwK95yMqdUQ73LqQ-36">
          <mxGeometry x="1055" y="1024" width="120" height="60" as="geometry" />
        </mxCell>
        <mxCell id="Sg2g_KQ4mxl8zUknpwYj-169" value="" style="edgeStyle=orthogonalEdgeStyle;rounded=0;orthogonalLoop=1;jettySize=auto;html=1;fontFamily=Sarabun;fontSource=https%3A%2F%2Ffonts.googleapis.com%2Fcss%3Ffamily%3DSarabun;fontSize=12;fontColor=default;fontStyle=1;resizable=1;" edge="1" parent="mvioNwK95yMqdUQ73LqQ-36" source="Sg2g_KQ4mxl8zUknpwYj-166" target="Sg2g_KQ4mxl8zUknpwYj-168">
          <mxGeometry relative="1" as="geometry" />
        </mxCell>
        <mxCell id="Sg2g_KQ4mxl8zUknpwYj-171" value="" style="edgeStyle=orthogonalEdgeStyle;rounded=0;orthogonalLoop=1;jettySize=auto;html=1;fontFamily=Sarabun;fontSource=https%3A%2F%2Ffonts.googleapis.com%2Fcss%3Ffamily%3DSarabun;fontSize=12;fontColor=default;fontStyle=1;resizable=1;" edge="1" parent="mvioNwK95yMqdUQ73LqQ-36" source="Sg2g_KQ4mxl8zUknpwYj-166" target="Sg2g_KQ4mxl8zUknpwYj-170">
          <mxGeometry relative="1" as="geometry" />
        </mxCell>
        <mxCell id="Sg2g_KQ4mxl8zUknpwYj-166" value="เส้นมาม่านุ่มหรือยัง" style="rhombus;whiteSpace=wrap;html=1;fontFamily=Sarabun;rounded=0;fontSource=https%3A%2F%2Ffonts.googleapis.com%2Fcss%3Ffamily%3DSarabun;" vertex="1" parent="mvioNwK95yMqdUQ73LqQ-36">
          <mxGeometry x="1052.5" y="1154" width="125" height="80" as="geometry" />
        </mxCell>
        <mxCell id="Sg2g_KQ4mxl8zUknpwYj-168" value="รอ" style="whiteSpace=wrap;html=1;fontFamily=Sarabun;rounded=0;fontSource=https%3A%2F%2Ffonts.googleapis.com%2Fcss%3Ffamily%3DSarabun;" vertex="1" parent="mvioNwK95yMqdUQ73LqQ-36">
          <mxGeometry x="1260" y="1164" width="120" height="60" as="geometry" />
        </mxCell>
        <mxCell id="Sg2g_KQ4mxl8zUknpwYj-173" value="" style="edgeStyle=orthogonalEdgeStyle;rounded=0;orthogonalLoop=1;jettySize=auto;html=1;fontFamily=Sarabun;fontSource=https%3A%2F%2Ffonts.googleapis.com%2Fcss%3Ffamily%3DSarabun;fontSize=12;fontColor=default;fontStyle=1;resizable=1;" edge="1" parent="mvioNwK95yMqdUQ73LqQ-36" source="Sg2g_KQ4mxl8zUknpwYj-170" target="Sg2g_KQ4mxl8zUknpwYj-172">
          <mxGeometry relative="1" as="geometry" />
        </mxCell>
        <mxCell id="Sg2g_KQ4mxl8zUknpwYj-170" value="ยกกระทะใส่เทใส่ถ้วย" style="whiteSpace=wrap;html=1;fontFamily=Sarabun;rounded=0;fontSource=https%3A%2F%2Ffonts.googleapis.com%2Fcss%3Ffamily%3DSarabun;" vertex="1" parent="mvioNwK95yMqdUQ73LqQ-36">
          <mxGeometry x="1055" y="1280" width="120" height="60" as="geometry" />
        </mxCell>
        <mxCell id="Sg2g_KQ4mxl8zUknpwYj-175" value="" style="edgeStyle=orthogonalEdgeStyle;rounded=0;orthogonalLoop=1;jettySize=auto;html=1;fontFamily=Sarabun;fontSource=https%3A%2F%2Ffonts.googleapis.com%2Fcss%3Ffamily%3DSarabun;fontSize=12;fontColor=default;fontStyle=1;resizable=1;" edge="1" parent="mvioNwK95yMqdUQ73LqQ-36" source="Sg2g_KQ4mxl8zUknpwYj-172" target="Sg2g_KQ4mxl8zUknpwYj-174">
          <mxGeometry relative="1" as="geometry" />
        </mxCell>
        <mxCell id="Sg2g_KQ4mxl8zUknpwYj-172" value="ยกกระทะเทใส่ถ้วย" style="whiteSpace=wrap;html=1;fontFamily=Sarabun;rounded=0;fontSource=https%3A%2F%2Ffonts.googleapis.com%2Fcss%3Ffamily%3DSarabun;" vertex="1" parent="mvioNwK95yMqdUQ73LqQ-36">
          <mxGeometry x="1055" y="1390" width="120" height="60" as="geometry" />
        </mxCell>
        <mxCell id="Sg2g_KQ4mxl8zUknpwYj-177" value="" style="edgeStyle=orthogonalEdgeStyle;rounded=0;orthogonalLoop=1;jettySize=auto;html=1;fontFamily=Sarabun;fontSource=https%3A%2F%2Ffonts.googleapis.com%2Fcss%3Ffamily%3DSarabun;fontSize=12;fontColor=default;fontStyle=1;resizable=1;" edge="1" parent="mvioNwK95yMqdUQ73LqQ-36" source="Sg2g_KQ4mxl8zUknpwYj-174" target="Sg2g_KQ4mxl8zUknpwYj-176">
          <mxGeometry relative="1" as="geometry" />
        </mxCell>
        <mxCell id="Sg2g_KQ4mxl8zUknpwYj-174" value="ยกกระทะใส่เทมาม่าใส่ถ้วย" style="whiteSpace=wrap;html=1;fontFamily=Sarabun;rounded=0;fontSource=https%3A%2F%2Ffonts.googleapis.com%2Fcss%3Ffamily%3DSarabun;" vertex="1" parent="mvioNwK95yMqdUQ73LqQ-36">
          <mxGeometry x="1055" y="1530" width="120" height="60" as="geometry" />
        </mxCell>
        <mxCell id="Sg2g_KQ4mxl8zUknpwYj-179" value="" style="edgeStyle=orthogonalEdgeStyle;rounded=0;orthogonalLoop=1;jettySize=auto;html=1;fontFamily=Sarabun;fontSource=https%3A%2F%2Ffonts.googleapis.com%2Fcss%3Ffamily%3DSarabun;fontSize=12;fontColor=default;fontStyle=1;resizable=1;" edge="1" parent="mvioNwK95yMqdUQ73LqQ-36" source="Sg2g_KQ4mxl8zUknpwYj-176" target="Sg2g_KQ4mxl8zUknpwYj-178">
          <mxGeometry relative="1" as="geometry" />
        </mxCell>
        <mxCell id="Sg2g_KQ4mxl8zUknpwYj-176" value="นำตะเกียบกับช้องใส่ในถ้วย" style="whiteSpace=wrap;html=1;fontFamily=Sarabun;rounded=0;fontSource=https%3A%2F%2Ffonts.googleapis.com%2Fcss%3Ffamily%3DSarabun;" vertex="1" parent="mvioNwK95yMqdUQ73LqQ-36">
          <mxGeometry x="1055" y="1670" width="120" height="60" as="geometry" />
        </mxCell>
        <mxCell id="Sg2g_KQ4mxl8zUknpwYj-189" style="edgeStyle=orthogonalEdgeStyle;rounded=0;orthogonalLoop=1;jettySize=auto;html=1;exitX=0.5;exitY=1;exitDx=0;exitDy=0;entryX=0.5;entryY=0;entryDx=0;entryDy=0;fontFamily=Sarabun;fontSource=https%3A%2F%2Ffonts.googleapis.com%2Fcss%3Ffamily%3DSarabun;fontSize=12;fontColor=default;fontStyle=1;resizable=1;" edge="1" parent="mvioNwK95yMqdUQ73LqQ-36" source="Sg2g_KQ4mxl8zUknpwYj-178" target="mvioNwK95yMqdUQ73LqQ-69">
          <mxGeometry relative="1" as="geometry" />
        </mxCell>
        <mxCell id="Sg2g_KQ4mxl8zUknpwYj-178" value="ยกถ้วยไปเสริฟให้พี่" style="whiteSpace=wrap;html=1;fontFamily=Sarabun;rounded=0;fontSource=https%3A%2F%2Ffonts.googleapis.com%2Fcss%3Ffamily%3DSarabun;" vertex="1" parent="mvioNwK95yMqdUQ73LqQ-36">
          <mxGeometry x="1055" y="1810" width="120" height="60" as="geometry" />
        </mxCell>
        <mxCell id="Sg2g_KQ4mxl8zUknpwYj-180" value="" style="strokeWidth=2;html=1;shape=mxgraph.flowchart.start_2;whiteSpace=wrap;" vertex="1" parent="mvioNwK95yMqdUQ73LqQ-36">
          <mxGeometry x="1105" y="740" width="20" height="20" as="geometry" />
        </mxCell>
        <mxCell id="Sg2g_KQ4mxl8zUknpwYj-181" value="" style="edgeStyle=orthogonalEdgeStyle;rounded=0;orthogonalLoop=1;jettySize=auto;html=1;fontFamily=Sarabun;fontSource=https%3A%2F%2Ffonts.googleapis.com%2Fcss%3Ffamily%3DSarabun;fontSize=12;fontColor=default;fontStyle=1;resizable=1;" edge="1" parent="mvioNwK95yMqdUQ73LqQ-36" source="Sg2g_KQ4mxl8zUknpwYj-154" target="Sg2g_KQ4mxl8zUknpwYj-180">
          <mxGeometry relative="1" as="geometry">
            <mxPoint x="355" y="1350" as="sourcePoint" />
            <mxPoint x="355" y="1420" as="targetPoint" />
          </mxGeometry>
        </mxCell>
        <mxCell id="Sg2g_KQ4mxl8zUknpwYj-182" style="edgeStyle=orthogonalEdgeStyle;rounded=0;orthogonalLoop=1;jettySize=auto;html=1;exitX=0.5;exitY=1;exitDx=0;exitDy=0;entryX=1;entryY=0.5;entryDx=0;entryDy=0;entryPerimeter=0;fontFamily=Sarabun;fontSource=https%3A%2F%2Ffonts.googleapis.com%2Fcss%3Ffamily%3DSarabun;fontSize=12;fontColor=default;fontStyle=1;resizable=1;" edge="1" parent="mvioNwK95yMqdUQ73LqQ-36" source="Sg2g_KQ4mxl8zUknpwYj-152" target="Sg2g_KQ4mxl8zUknpwYj-180">
          <mxGeometry relative="1" as="geometry" />
        </mxCell>
        <mxCell id="Sg2g_KQ4mxl8zUknpwYj-183" value="" style="strokeWidth=2;html=1;shape=mxgraph.flowchart.start_2;whiteSpace=wrap;" vertex="1" parent="mvioNwK95yMqdUQ73LqQ-36">
          <mxGeometry x="1105" y="980" width="20" height="20" as="geometry" />
        </mxCell>
        <mxCell id="Sg2g_KQ4mxl8zUknpwYj-184" value="" style="edgeStyle=orthogonalEdgeStyle;rounded=0;orthogonalLoop=1;jettySize=auto;html=1;fontFamily=Sarabun;fontSource=https%3A%2F%2Ffonts.googleapis.com%2Fcss%3Ffamily%3DSarabun;fontSize=12;fontColor=default;fontStyle=1;resizable=1;" edge="1" parent="mvioNwK95yMqdUQ73LqQ-36" source="Sg2g_KQ4mxl8zUknpwYj-162" target="Sg2g_KQ4mxl8zUknpwYj-183">
          <mxGeometry relative="1" as="geometry">
            <mxPoint x="355" y="1590" as="sourcePoint" />
            <mxPoint x="355" y="1640" as="targetPoint" />
          </mxGeometry>
        </mxCell>
        <mxCell id="Sg2g_KQ4mxl8zUknpwYj-185" style="edgeStyle=orthogonalEdgeStyle;rounded=0;orthogonalLoop=1;jettySize=auto;html=1;entryX=1;entryY=0.5;entryDx=0;entryDy=0;entryPerimeter=0;fontFamily=Sarabun;fontSource=https%3A%2F%2Ffonts.googleapis.com%2Fcss%3Ffamily%3DSarabun;fontSize=12;fontColor=default;fontStyle=1;resizable=1;" edge="1" parent="mvioNwK95yMqdUQ73LqQ-36" source="Sg2g_KQ4mxl8zUknpwYj-160" target="Sg2g_KQ4mxl8zUknpwYj-183">
          <mxGeometry relative="1" as="geometry">
            <Array as="points">
              <mxPoint x="1335" y="990" />
            </Array>
          </mxGeometry>
        </mxCell>
        <mxCell id="Sg2g_KQ4mxl8zUknpwYj-186" value="" style="strokeWidth=2;html=1;shape=mxgraph.flowchart.start_2;whiteSpace=wrap;" vertex="1" parent="mvioNwK95yMqdUQ73LqQ-36">
          <mxGeometry x="1105" y="1104" width="20" height="20" as="geometry" />
        </mxCell>
        <mxCell id="Sg2g_KQ4mxl8zUknpwYj-187" value="" style="edgeStyle=orthogonalEdgeStyle;rounded=0;orthogonalLoop=1;jettySize=auto;html=1;fontFamily=Sarabun;fontSource=https%3A%2F%2Ffonts.googleapis.com%2Fcss%3Ffamily%3DSarabun;fontSize=12;fontColor=default;fontStyle=1;resizable=1;" edge="1" parent="mvioNwK95yMqdUQ73LqQ-36" source="Sg2g_KQ4mxl8zUknpwYj-164" target="Sg2g_KQ4mxl8zUknpwYj-186">
          <mxGeometry relative="1" as="geometry">
            <mxPoint x="355" y="1714" as="sourcePoint" />
            <mxPoint x="355" y="1784" as="targetPoint" />
          </mxGeometry>
        </mxCell>
        <mxCell id="Sg2g_KQ4mxl8zUknpwYj-188" style="edgeStyle=orthogonalEdgeStyle;rounded=0;orthogonalLoop=1;jettySize=auto;html=1;exitX=0.5;exitY=0;exitDx=0;exitDy=0;entryX=1;entryY=0.5;entryDx=0;entryDy=0;entryPerimeter=0;fontFamily=Sarabun;fontSource=https%3A%2F%2Ffonts.googleapis.com%2Fcss%3Ffamily%3DSarabun;fontSize=12;fontColor=default;fontStyle=1;resizable=1;" edge="1" parent="mvioNwK95yMqdUQ73LqQ-36" source="Sg2g_KQ4mxl8zUknpwYj-168" target="Sg2g_KQ4mxl8zUknpwYj-186">
          <mxGeometry relative="1" as="geometry" />
        </mxCell>
        <mxCell id="Sg2g_KQ4mxl8zUknpwYj-191" value="F" style="text;html=1;align=center;verticalAlign=middle;whiteSpace=wrap;rounded=0;" vertex="1" parent="mvioNwK95yMqdUQ73LqQ-36">
          <mxGeometry x="1150" y="230" width="60" height="30" as="geometry" />
        </mxCell>
        <mxCell id="Sg2g_KQ4mxl8zUknpwYj-192" value="F" style="text;html=1;align=center;verticalAlign=middle;whiteSpace=wrap;rounded=0;" vertex="1" parent="mvioNwK95yMqdUQ73LqQ-36">
          <mxGeometry x="210" y="1370" width="60" height="30" as="geometry" />
        </mxCell>
        <mxCell id="Sg2g_KQ4mxl8zUknpwYj-193" value="F" style="text;html=1;align=center;verticalAlign=middle;whiteSpace=wrap;rounded=0;" vertex="1" parent="mvioNwK95yMqdUQ73LqQ-36">
          <mxGeometry x="370" y="1690" width="60" height="30" as="geometry" />
        </mxCell>
        <mxCell id="Sg2g_KQ4mxl8zUknpwYj-194" value="F" style="text;html=1;align=center;verticalAlign=middle;whiteSpace=wrap;rounded=0;" vertex="1" parent="mvioNwK95yMqdUQ73LqQ-36">
          <mxGeometry x="360" y="2278" width="60" height="30" as="geometry" />
        </mxCell>
        <mxCell id="Sg2g_KQ4mxl8zUknpwYj-202" value="T" style="text;html=1;align=center;verticalAlign=middle;whiteSpace=wrap;rounded=0;" vertex="1" parent="mvioNwK95yMqdUQ73LqQ-36">
          <mxGeometry x="1120" y="610" width="60" height="30" as="geometry" />
        </mxCell>
        <mxCell id="Sg2g_KQ4mxl8zUknpwYj-203" value="T" style="text;html=1;align=center;verticalAlign=middle;whiteSpace=wrap;rounded=0;" vertex="1" parent="mvioNwK95yMqdUQ73LqQ-36">
          <mxGeometry x="1105" y="290" width="60" height="30" as="geometry" />
        </mxCell>
        <mxCell id="Sg2g_KQ4mxl8zUknpwYj-201" value="T" style="text;html=1;align=center;verticalAlign=middle;whiteSpace=wrap;rounded=0;" vertex="1" parent="mvioNwK95yMqdUQ73LqQ-36">
          <mxGeometry x="1125" y="850" width="60" height="30" as="geometry" />
        </mxCell>
        <mxCell id="Sg2g_KQ4mxl8zUknpwYj-200" value="T" style="text;html=1;align=center;verticalAlign=middle;whiteSpace=wrap;rounded=0;" vertex="1" parent="mvioNwK95yMqdUQ73LqQ-36">
          <mxGeometry x="1105" y="1240" width="60" height="30" as="geometry" />
        </mxCell>
        <mxCell id="Sg2g_KQ4mxl8zUknpwYj-205" value="F" style="text;html=1;align=center;verticalAlign=middle;whiteSpace=wrap;rounded=0;" vertex="1" parent="mvioNwK95yMqdUQ73LqQ-36">
          <mxGeometry x="1160" y="800" width="60" height="30" as="geometry" />
        </mxCell>
        <mxCell id="mvioNwK95yMqdUQ73LqQ-70" value="&lt;font data-font-src=&quot;https://fonts.googleapis.com/css?family=Sarabun&quot; face=&quot;Sarabun&quot;&gt;โจทย์ปัญหา&lt;/font&gt;" style="swimlane;whiteSpace=wrap;html=1;" parent="WIyWlLk6GJQsqaUBKTNV-1" vertex="1">
          <mxGeometry x="-732.5" y="320" width="665" height="310" as="geometry" />
        </mxCell>
        <mxCell id="mvioNwK95yMqdUQ73LqQ-71" value="&lt;p style=&quot;line-height: 120%;&quot;&gt;&lt;font data-font-src=&quot;https://fonts.googleapis.com/css?family=Sarabun&quot; face=&quot;Sarabun&quot; style=&quot;font-size: 14px;&quot;&gt;&lt;b&gt;&lt;u&gt;โจทย์&lt;/u&gt;&lt;/b&gt; จงเขียน Flowchart เพื่อแสดงขั้นตอนการต้มบะหมี่กึ่งสำเร็จรูป (โดยผู้อ่าน Flowchart คือน้องของคุณ&lt;br&gt;&amp;nbsp; &amp;nbsp; &amp;nbsp; &amp;nbsp; &amp;nbsp; ที่มีอายุ 5 ขวบและกำลังหยิบ Flowchart มาต้มมาม่าให้คุณรับประทาน โดยคุณจะไม่พูดอะไรกับน้องเลย)&lt;br&gt;&lt;/font&gt;&lt;br&gt;&lt;/p&gt;&lt;p style=&quot;line-height: 120%;&quot;&gt;&lt;font face=&quot;Sarabun&quot;&gt;&lt;b&gt;&lt;u&gt;หมายเหตุ&lt;/u&gt;&lt;/b&gt; ทุกขั้นตอนควรมีการอธิบายอย่างละเอียด และเตรียมแก้ไขสำหรับเหตุการณ์ที่อาจผิดพลาดในทุกขั้นตอน&lt;br&gt;&amp;nbsp; &amp;nbsp; &amp;nbsp; &amp;nbsp; &amp;nbsp; เช่น&lt;br&gt;&amp;nbsp; &amp;nbsp; &amp;nbsp; &amp;nbsp; &amp;nbsp; - กรณีให้น้องไปซื้อของที่ตลาด แต่ของหมด ควรดำเนินการอย่างไร?&lt;br&gt;&amp;nbsp; &amp;nbsp; &amp;nbsp; &amp;nbsp; &amp;nbsp; - กรณีให้น้องต้มน้ำ แต่น้ำยังไม่เดือด ควรใส่บะหมี่สำเร็จรูปลงไปเลยไหม&lt;br&gt;&amp;nbsp; &amp;nbsp; &amp;nbsp; &amp;nbsp; &amp;nbsp; - กรณีระหว่างทำกับข้าวแล้วแก้สหมด ควรดำเนินการอย่างไร?&lt;br&gt;&amp;nbsp; &amp;nbsp; &amp;nbsp; &amp;nbsp; &amp;nbsp; - กรณีน้องไปซื้อของ แต่จำนวนเงินไม่พอ ควรทำอย่างไร?&lt;br&gt;&amp;nbsp; &amp;nbsp; &amp;nbsp; &amp;nbsp; &amp;nbsp; - กรณีน้องต้มบะหมี่เสร็จ แต่พึ่งมาทราบภายหลังว่าในซองบะหมี่ไม่มีเครื่องปรุงมาด้วย ต้องทำอย่างไร?&lt;/font&gt;&lt;/p&gt;" style="text;html=1;align=left;verticalAlign=top;resizable=0;points=[];autosize=1;strokeColor=none;fillColor=none;fontSize=14;" parent="mvioNwK95yMqdUQ73LqQ-70" vertex="1">
          <mxGeometry x="15" y="20" width="650" height="240" as="geometry" />
        </mxCell>
        <mxCell id="Sg2g_KQ4mxl8zUknpwYj-190" value="F" style="text;html=1;align=center;verticalAlign=middle;whiteSpace=wrap;rounded=0;" vertex="1" parent="WIyWlLk6GJQsqaUBKTNV-1">
          <mxGeometry x="410" y="1180" width="60" height="30" as="geometry" />
        </mxCell>
        <mxCell id="Sg2g_KQ4mxl8zUknpwYj-195" value="F" style="text;html=1;align=center;verticalAlign=middle;whiteSpace=wrap;rounded=0;" vertex="1" parent="WIyWlLk6GJQsqaUBKTNV-1">
          <mxGeometry x="-390" y="3210" width="60" height="30" as="geometry" />
        </mxCell>
        <mxCell id="Sg2g_KQ4mxl8zUknpwYj-196" value="T" style="text;html=1;align=center;verticalAlign=middle;whiteSpace=wrap;rounded=0;" vertex="1" parent="WIyWlLk6GJQsqaUBKTNV-1">
          <mxGeometry x="-430" y="3280" width="60" height="30" as="geometry" />
        </mxCell>
        <mxCell id="Sg2g_KQ4mxl8zUknpwYj-197" value="T" style="text;html=1;align=center;verticalAlign=middle;whiteSpace=wrap;rounded=0;" vertex="1" parent="WIyWlLk6GJQsqaUBKTNV-1">
          <mxGeometry x="-420" y="2980" width="60" height="30" as="geometry" />
        </mxCell>
        <mxCell id="Sg2g_KQ4mxl8zUknpwYj-198" value="T" style="text;html=1;align=center;verticalAlign=middle;whiteSpace=wrap;rounded=0;" vertex="1" parent="WIyWlLk6GJQsqaUBKTNV-1">
          <mxGeometry x="-430" y="2400" width="60" height="30" as="geometry" />
        </mxCell>
        <mxCell id="Sg2g_KQ4mxl8zUknpwYj-199" value="T" style="text;html=1;align=center;verticalAlign=middle;whiteSpace=wrap;rounded=0;" vertex="1" parent="WIyWlLk6GJQsqaUBKTNV-1">
          <mxGeometry x="-430" y="2080" width="60" height="30" as="geometry" />
        </mxCell>
        <mxCell id="Sg2g_KQ4mxl8zUknpwYj-204" value="F" style="text;html=1;align=center;verticalAlign=middle;whiteSpace=wrap;rounded=0;" vertex="1" parent="WIyWlLk6GJQsqaUBKTNV-1">
          <mxGeometry x="400" y="1790" width="60" height="30" as="geometry" />
        </mxCell>
      </root>
    </mxGraphModel>
  </diagram>
</mxfile>
